<?xml version="1.0" encoding="UTF-8"?>
<svg id="Layer_2" data-name="Layer 2" xmlns="http://www.w3.org/2000/svg" xmlns:xlink="http://www.w3.org/1999/xlink" viewBox="0 0 11.12 11.15">
  <defs>
    <style>
      .cls-1 {
        fill: #fdf3e5;
      }

      .cls-2 {
        fill: #f6911f;
      }

      .cls-3 {
        fill: #e76526;
      }

      .cls-4 {
        fill: #f18226;
      }

      .cls-5 {
        fill: #f9a41c;
      }

      .cls-6 {
        fill: #f7961e;
      }

      .cls-7 {
        fill: #f89b1d;
      }

      .cls-8 {
        fill: #f68e1f;
      }

      .cls-9 {
        fill: #faaa1b;
      }

      .cls-10 {
        fill: #f79c20;
      }

      .cls-11 {
        fill: #e1a654;
      }

      .cls-12 {
        fill: #f27c22;
      }

      .cls-13 {
        fill: #f58320;
      }

      .cls-14 {
        fill: #fffefd;
      }

      .cls-15 {
        fill: url(#linear-gradient);
      }

      .cls-16 {
        fill: #f68c1f;
      }

      .cls-17 {
        fill: #f7ac20;
      }
    </style>
    <linearGradient id="linear-gradient" x1="1.08" y1="4.2" x2="9.69" y2="4.2" gradientUnits="userSpaceOnUse">
      <stop offset="0" stop-color="#243570"/>
      <stop offset="1" stop-color="#61cbe8"/>
    </linearGradient>
  </defs>
  <g id="Layer_1-2" data-name="Layer 1">
    <path class="cls-15" d="M4.71,6.19h-.8v-3.98h1.19c.61,0,1.09.17,1.46.52.36.35.55.84.55,1.47,0,.1-.01.2-.02.29l2.6-1.86c-.09-.23-.19-.46-.32-.66-.4-.63-.95-1.12-1.67-1.46-.72-.34-1.54-.51-2.48-.51H1.08v8.4h.55l3.08-2.21Z"/>
    <g>
      <path class="cls-8" d="M3.16,10.99s-.12-.06-.15-.09c0,0,0-.02-.03-.05-.07-.09.04-.09.18-.15.49-.21.99-.48,1.42-.78.02-.01.03,0,.08-.02.14-.09.23-.22.33-.3.07-.06.57-.47.63-.52.09-.06.22-.13.3-.13,0,0,.01-.01.02-.02l-.1-.02s.08-.07.12-.09c-.08-.06.07-.2.12-.3.02-.03.01-.07.03-.1.04-.06.12-.06.16-.18.02-.06-.03-.03.1-.14l.08-.15c-.09.04-.13.11-.2.17-.14.13-.19.17-.3.27-.01,0-.17.11-.19.12-.12.09-.1.08-.17.15,0,0-.16.06-.16.04.03-.04.11-.09.14-.13.04-.05.09-.17.15-.25.25-.32.54-.64.74-.96.04-.07.02-.11.13-.2h-.06c.03-.06.06-.04.1-.07.09-.08.12-.19.18-.26.04-.05.09-.06.13-.11.22-.26.42-.62.61-.88,0-.01.04,0,.05-.02.1-.14.2-.34.3-.5.04-.05.19-.24.15-.26-.01,0-.06.02-.06,0l-.06.1c-.11.03-.02-.17.06-.19.02,0,.03.02.03.02.03,0,.08-.03.11,0,.13-.17.2-.34.3-.51.02-.04-.04-.07-.06-.06-.01.02-.21.29-.26.36-.07.08-.18.16-.22.23-.05.08-.04.12-.07.18-.06.11-.14.21-.21.31-.03.05-.04.09-.06.11-.01.01-.08,0-.03.04-.21.27-.38.55-.6.82-.41.68-1,1.36-1.69,1.97-.1.08-.23.18-.32.26-.2.17-.43.36-.67.52-.21.14-.41.33-.62.42-.25.11-.35.05-.13-.02.06-.02.13-.02.19-.05-.16.01-.04-.09-.05-.09-.02-.01-.11,0-.14-.02-.03.03-.05.04-.09.05.11.1-.26.2-.41.26-.04.02-.15.06-.19.08-.04.02,0,.03-.03.04-.03.03-.11.05-.06.07h-.02s-.14.03-.19.06c-.02.01,0,.03-.01.05,0,.02-.05.04-.05.05,0,.02.06.04.05.05,0,.02-.12.05-.12.05,0,0,.04.03.02.05-.02.02-.08.04-.08.04-.02.03.21.04.09-.02.04-.02.05.01.11,0,.04,0,.2-.07.23-.09.05-.02,0-.03.02-.04.09-.03.21-.07.29-.12.01,0,0-.03.03-.06.06-.04.05.02.11,0-.15-.05.09-.06.1-.06.05-.02.06-.07.1-.1.04-.02.1-.03.14-.05.22-.11.32-.22.47-.32.1-.07.28-.16.38-.23.12-.09.19-.15.29-.23.14-.12.23-.19.36-.32,0,0,.04,0,.04,0,.04-.04.06-.09.13-.14.04-.03.05-.02.07-.03.05-.04.12-.13.18-.18.04-.04.09-.11.14-.15.01-.01.04,0,.05-.02.05-.03.1-.11.16-.1.09,0-.03.18-.09.25-.02.03-.05.04-.05.04-.07.08-.11.17-.18.23-.02.01-.04,0-.05.01-.06.07-.14.17-.22.25-.02.02-.08.06-.08.06,0,0,.04,0,.02.02-.02.02-.03,0-.05.01-.03.02-.05.06-.08.09-.11.1-.17.15-.27.24-.05.04-.14.09-.16.11-.02.02.03.01.01.03-.02.02-.03,0-.04,0,0,0-.1.08-.11.09-.03.02-.04.06-.05.07,0,0-.05-.02-.1.02-.04.02-.04.06-.08.09-.04.02-.09.05-.13.07-.15.1-.3.21-.47.3.04.06.15-.04.17-.04.02,0,.1,0,.15,0,.07-.02.22-.11.32-.15-.07-.07.08-.06.12-.07.03-.01.05-.05.09-.07.04-.01.07,0,.08,0,.07-.02.01-.05.03-.07.08-.09.32-.15.33-.19l-.05-.03c.21-.03.16-.11.24-.18.01,0,.04,0,.06-.01.06-.05.08-.07.14-.12,0,0,.04,0,.05-.01.09-.07.2-.22.34-.33.02-.01.04,0,.05-.02.02-.02.07-.1.13-.09.09.02-.14.26-.21.33h-.08s-.02.06-.05.09c-.12.12-.42.3-.54.41-.01,0,.04.02-.08.1-.03.02-.05,0-.06,0-.04.02.01.02,0,.04-.02.04-.14.1-.16.14,0,.02.04.04.02.07-.03.03-.1.03-.15.06-.08.06-.26.19-.28.25-.08,0-.07.03-.14.07-.07.05-.26.17-.3.14h-.02c.06.05-.25.13-.3.19l-.16.02c-.15.08-.24.11-.39.17-.03.02-.25.13-.27.14-.03.03.04.1.04.12,0,.02-.13.1.07.06l-.03.03h.09c-.1.02-.04.03-.08.06-.03-.03-.15-.02-.2-.03.05.05.18.04.3.06.04,0,.07.02.08.02,0,0,.03-.01.05-.02.02,0,.04,0,.04,0,.07-.01.15-.12.14-.15ZM5.61,8.14h.02s-.02.01-.02,0Z"/>
      <path class="cls-17" d="M5.83,9.71c.76-.65,1.29-1.32,1.82-1.98.16-.2.2-.26.33-.46.11-.18.28-.36.38-.51.05-.08.07-.15.12-.22.04-.06.09-.08.12-.13.06-.09.06-.19.11-.27.04-.08.11-.13.15-.2.03-.05.04-.1.07-.16.07-.12.2-.26.2-.38,0-.04-.06-.03-.05-.08,0-.04.13-.32.2-.35-.02.08-.07.15,0,.16.09-.15.18-.25.22-.39-.04,0-.1.04-.14.06.02-.04.06-.1.07-.13,0-.02-.04,0-.04-.02,0-.02.12-.32.14-.35.04-.08.1-.13.17-.16.02.03-.03.09-.04.13,0,.02.02.01.02.03-.02.07-.08.11-.02.13.09-.12.12-.23.17-.34.1-.21.19-.41.27-.61.02-.04.06-.09.07-.13,0,0,.03-.17.03-.17,0-.01-.06-.03-.07-.07,0-.04.03-.11.05-.16.04,0,.04.1.09.02.1-.16.11-.25.13-.39-.03.04-.18,0-.18-.02,0,0,.06-.17.07-.21.02-.09,0-.11,0-.15.02-.09.04-.22.06-.32-.06.04-.08.16-.1.22-.02.07-.05.19-.07.27-.03.11-.08.27-.11.37l-.16.38s0,.16.05.13c-.11.08-.18.28-.2.4,0,.03.03.01.01.05-.03.07-.08.08-.11.13-.23.37-.4.83-.59,1.18l-.02.04s.02.03,0,.06c-.04.08-.08.18-.11.24-.05.14.04.11-.11.34l-.03.04v.02c.06.02-.1.19-.01.21-.03.07-.1.05-.14.09-.03.04-.04.08-.06.11.03,0,.04.03,0,.06,0,0-.04-.02-.04.03.12-.02.03.16-.07.17-.04,0,.03-.06-.03-.04-.1.11-.01.07,0,.08,0,0-.19.2-.15.25-.08.02-.07.08-.11.14-.04.05-.1.09-.13.13-.08.11-.19.26-.28.38l-.06.08s-.08.09-.1.11c-.23.27-.44.54-.65.82-.21.3-.48.69-.8.98-.13.11-.07.07-.17.17-.04.04-.14.11-.2.16-.31.26-.7.51-1.07.74-.14.09-.32.22-.46.29-.03.01-.13.02-.16.03-.08.04-.2.13-.28.16-.08.04-.26.06-.34.09-.06.02-.09.05-.13.07-.08.03-.18.06-.25.1.05,0,.36-.04.38-.05.07-.02.16-.06.17-.06-.05-.02-.08-.01.02-.05.1-.04.26-.1.37-.15l.05-.03c.05-.03.08-.03.1-.04.03-.02.09-.06.11-.06l.07-.03c.07-.05.16-.1.23-.15.04-.03.1-.07.14-.08.03-.02.07-.05.1-.07.02-.01.04-.03.07-.03.31-.2.62-.41.88-.63ZM8.54,6.42h.02s-.02.01-.02,0Z"/>
      <path class="cls-7" d="M8.61,6.14c-.04.06-.15.15-.17.19-.04.06,0,.07-.02.1-.03.05-.14.16-.18.22-.03.05-.02.07-.04.1-.1.15-.29.38-.42.54-.05.06-.03.05.01.05l-.06.08s-.07.06-.13.1h.02c-.23.29-.44.56-.65.84-.21.3-.48.69-.8.98-.13.11-.07.07-.17.17-.04.04-.14.11-.2.16-.31.26-.7.51-1.07.74-.14.09-.32.22-.46.29-.03.01-.13.02-.16.03-.08.04-.2.13-.28.16-.08.04-.26.06-.34.09-.06.02-.09.05-.13.07-.08.03-.18.06-.25.1-.11,0-.09,0-.12,0,0,0-.07.04-.09,0,0,0,.03-.01.05-.02.02,0,.04,0,.04,0,.07-.01.15-.12.14-.15-.02-.05-.12-.06-.15-.09,0,0,0-.02-.03-.05-.07-.09.04-.09.18-.15.49-.21.99-.48,1.42-.78.02-.01.03,0,.08-.02.14-.09.23-.22.33-.3.07-.06.57-.47.63-.52.09-.06.22-.13.3-.13,0,0,.06,0,0,.04-.02,0-.04.01-.06.02-.12.07-.45.43-.61.52-.03.08-.34.29-.33.35.01.07.15-.08.2-.03-.13.11-.57.38-.67.45-.05-.02-.05,0-.09.04-.19.14-.36.27-.57.38.03.03.09-.02.16-.03.08-.02.18-.01.28-.05.12-.05.29-.18.48-.26.03-.01.07,0,.1-.04,0,0-.03,0-.02-.02.04-.04.12-.07.16-.1.04-.03.02-.05.06-.08.01,0,.04,0,.06-.01.09-.05.2-.15.28-.21.41-.28.72-.55,1.01-.87.28-.3.5-.64.73-.95.05-.06.15-.21.12-.25-.03-.03-.11.1-.12.11-.19.21-.45.48-.63.68l-.07.08s-.06.04-.08.03c.41-.46.83-.93,1.19-1.41.15-.2.25-.4.38-.59,0,0,.04-.02.04-.04,0,0-.03,0-.03,0,0,0,.05-.06.05-.08.02-.03.05-.05.09-.1.04-.06.1-.17.12-.23l.04-.06s.02,0,.03-.02c0,0,0-.02,0-.02.03-.05.06-.1.08-.14.02,0,.05-.02.06-.02-.13.25-.33.52-.46.75-.03.06-.12.24-.1.26.1.06.29-.29.34-.37.02-.03.06-.06.08-.09.03-.04.04-.13.07-.19.12-.21.24-.24.31-.33.02-.03.07-.12.09-.16.02-.04.05-.08.02-.09v-.02s.06-.03.08-.06c.07.02-.08.19,0,.21-.03.07-.1.05-.14.09-.03.04-.04.08-.06.11Z"/>
      <path class="cls-12" d="M1.23,10.09s-.1-.05-.14-.07l-.03-.06.11-.02c-.18-.02,0-.04-.06-.09.04-.01.07.03.1.02.02,0,0-.05.03-.06.04-.02.09.04.16-.01h-.08s.04-.04.04-.04c-.14.01,0-.02-.03-.03h-.12s.03-.03.03-.03h-.11c-.05-.03.08-.04.09-.07,0,0-.06-.05-.08-.06-.05-.01-.14.03-.17.04l-.13-.02c.08-.02.19-.05.11-.1-.06-.04-.13,0-.17-.02-.03,0-.02-.04-.04-.05-.02,0-.06-.01-.08-.02,0,0-.04-.07-.06-.09.12-.04.25-.05.21-.14l-.13-.03s0-.07.1-.07c-.06-.03-.24,0-.25.03,0,.02.02.05.01.07-.04,0-.05.03-.08.03-.02,0-.31,0-.33,0-.05-.02-.01-.02.02-.03.1-.02.22-.01.33-.02-.04-.02-.05-.04-.07-.06-.06-.07.06-.02.09-.05,0,0-.08-.02,0-.03l.05.02s.05-.02.08-.03c.08-.04-.01-.08-.04-.05,0,0,.04.03,0,.03l-.03-.04s-.15.01-.21.03l-.1-.14s.02-.02.03-.02c.01,0,.03.04.06.02,0,0-.02-.02,0-.02.02-.01.09,0,.08-.04l.06.03v-.07s.03.02.04.02c0,0,.03-.01.03-.01.01,0,0,.03.04.02.02-.03-.05-.05-.05-.05,0-.02,0-.04-.03-.07-.03-.06.19.01.14-.06.04-.01.02.03.06.02l-.02-.02c.12.03.17-.04.23-.07.05-.02.18-.05.15-.09.03-.02.02.02.05.01v-.05c.09.04.04,0,.05-.01.06-.02.1,0,.15-.06.01-.02-.02-.03.02-.03.04.05.05,0,.07-.02.17-.07.37-.14.52-.22,0,0,.03.02.04.01.03-.01.06-.06.11-.08.04-.01.07,0,.14-.04.08.04-.03.05-.08.07-.08.04-.19.11-.27.15l-.08.03c-.16.06-.19.04-.34.14-.02.01-.05.03-.07.04-.09.04-.12.05-.22.09-.04.02-.19.05-.05.06.08,0,.15-.01.18-.01.03,0,.03.02.05.03.04.01.12-.04.13,0-.18.09-.37.17-.57.24-.01.01.12.05.15.06.11,0,.13-.03.2-.04.01.05.01.06.06.1.07.06.16.1.22.16.03,0,.06-.02.09-.03,0,0,.03,0,.03,0l.02.02h-.04c.05.03.17,0,.22-.04.04-.02.04-.08.08-.04v-.05s.09-.03.09-.03c.05.03.21-.03.22-.03.02,0,.02.05.1.02.04.08-.16.05-.2.06-.06.02-.1.07-.16.09-.19.07-.24.08-.4.16-.12.05-.38.13-.46.18-.01,0-.03.05-.03.06,0,.03.05,0,.06,0,0,0,.04,0,.04,0,.02,0,.03.03.07.04.04,0,.14-.02.15-.02.03,0,.08.03.11.03.02,0,.2-.04.22-.05.01,0,.03,0,.05.01.03.01.05.02.1.02.15-.05.27-.11.42-.16.04-.02.08-.02.09-.02.01.02-.02.03-.04.05-.12.08-.49.15-.41.24.11-.04.17-.04.24,0-.14.02-.08.04-.1.05-.06.03-.35.04-.26.13-.09.02-.05-.01-.1,0v.04s-.04-.03-.04-.03c0,.05-.11.06-.15.09-.04.02-.04.13-.13.16l-.14-.02.03.09s-.03,0-.05.01Z"/>
      <path class="cls-8" d="M4.44,9.03c.15-.14.29-.27.42-.39l.17-.16c.43-.43.75-.89,1.09-1.34.02-.03.08-.06.1-.1,0-.01-.02-.02-.02-.03.02-.02.06-.04.1-.08.05-.05.06-.1.1-.15.32-.41.65-.83.93-1.25.12-.18.29-.41.39-.58.04-.08.06-.16.09-.22.03-.04.08-.08.11-.15.03-.06.03-.15.04-.16,0,0,.09-.1.11-.12,0-.01.02-.03.02-.04.02-.05.04-.1.1-.15,0-.03.02-.05.03-.08.02-.06.02-.15.06-.22l.27-.53s-.03,0-.04,0c0,0,.02-.08,0-.09-.06.14-.14.3-.2.44l-.24.44-.08.16s-.02.19-.06.16v.02s-.01.03-.03.08c-.01.04.01.06.01.07,0,.01-.08.12-.09.13-.01.02-.04,0-.04.02-.06.24-.32.56-.49.81-.03.04-.04.1-.07.14-.02.02-.05.04-.07.07,0,0,.02.01.02.02-.01.02-.11.12-.13.15-.07.07-.04-.03-.02-.06.06-.08.17-.11.1-.18-.03.04-.1.12-.12.16l-.31.44-.29.41s-.04.03-.04.03l-.03.04c.06,0,0,.03-.02.07-.09.16-.39.55-.53.7-.09.1-.23.22-.34.32-.04.04-.38.44-.41.33,0-.02.36-.32.09-.21,0,0-.03.03-.03.03-.07.08-.17.18-.26.26-.29.26-.59.5-.93.72-.11.07-.23.14-.35.21.05.03.03.03.1-.01.09-.05.18-.13.28-.12-.13.08-.29.18-.41.27-.09.06-.06.08-.07.09-.04.01-.17.03-.2.03-.07,0,.14-.07.02-.08-.13.07-.27.15-.41.21.08.01.13-.04.2-.06.04-.01.17-.07.18-.04-.06.03-.13.05-.19.08-.08.04-.11.13-.21.09h-.02c.07.04-.08.06-.14.09-.04.02-.03.05-.09.07-.02,0-.29.08-.33.08-.15.03-.08-.01-.26.07,0,0,0,.01-.02.02-.06.01-.11-.02-.16-.02-.18-.03-.11.04-.18.07-.07.03-.27.1-.35.11-.02,0-.03,0-.05.01.08.03.19.06.28.07.11-.01.05-.05.11-.08.09-.05.2-.07.29-.03.05.02.04.04.05.05l.1-.03c-.12-.03,0-.05.03-.08,0,0-.02-.03,0-.05.04-.03.15-.06.22-.07.07-.02.05-.04.1,0,.13-.06.35-.15.49-.21.14-.07.29-.13.42-.21.05-.02.1-.03.14-.02.47-.25.86-.59,1.23-.92.1-.08.26-.19.34-.25.05-.04.11-.09.15-.14.13.01-.09.14-.03.16-.03.03-.03,0-.07.03-.06.05,0,.04-.04.08-.21.24-.61.56-.92.78-.15.11-.28.16-.43.29-.05.04,0,.03.03.05.02-.02.2-.09.24-.12.01,0-.03-.01.01-.04.12-.09.27-.16.41-.28l.04-.03ZM1.99,10s-.12,0-.12-.02c.02-.04.2-.02.12.02ZM1.37,10.09h.01s-.03,0-.01,0Z"/>
      <path class="cls-9" d="M8.94,5.05l-.12.2s-.05.01-.07,0c-.06-.03,0-.06,0-.1.02-.23.05-.38.13-.63.02-.07.1-.26.11-.31,0-.01,0-.02-.02-.01v-.02s.05-.01.05-.01c.04-.14.29-.44.19-.49l.04-.04s.06-.04.09-.09c.01-.02.1-.17.1-.18,0-.02-.04,0-.02-.03.07.01.06-.05.09-.11.06-.13.08-.29.13-.41.02-.04.06-.09.07-.14.01-.05-.02-.06,0-.1.06-.12.09-.04.14-.09.04-.03.04-.07.05-.09.25-.34.12-.34.25-.65.01,0,.03,0,.04,0-.02.07-.07.21-.07.26,0,.02.04,0,.04.02,0,.06-.15.37-.13.41.18-.05.07-.1.07-.11l.14-.39s.04-.06.05-.06c-.02.09-.04.17-.06.26,0,.04-.04.1-.05.14,0,.02.02,0,0,.1-.16.49-.38,1.04-.58,1.49-.18.41-.4.8-.63,1.2Z"/>
      <path class="cls-2" d="M4.48,6.75c-.06-.02-.08-.02-.15.05,0,0-.05,0,0-.05.01-.01.08-.06.09-.07.03-.01.04.01.06,0,.06-.05.13-.17.18-.23.04-.05.14-.15.19-.22.03-.04.13-.18.14-.2.03-.07-.08-.03-.13.03-.1.11-.09.12-.16.21-.15.23-.55.55-.68.73,0,.01.02.02,0,.03-.05.06-.17.11-.09.18l.13-.05s-.04.04-.06.06c-.05-.03-.14.12-.18.17-.01.01-.01.03-.02.03-.01.01-.03.03-.05.04-.07.05-.15.11-.21.17-.03-.03-.05.01-.08.03-.08.05-.11.09-.17.13l-.03.02s-.29.09-.14-.03c.13-.1.31-.2.44-.33.02-.02.02-.05.02-.05,0,0,.06,0,.1-.04.04-.03.09-.08.11-.12,0,0,.05-.15.05-.16,0-.02-.03-.03-.02-.05,0-.03.07-.08-.03-.09-.05,0-.14.09-.13-.04.06-.01.15-.08.13-.12-.01-.02-.07.04-.09,0,.05-.05.07-.03.09-.05.03-.03.08-.12.1-.16.05-.09,0-.06.11-.18.02-.03.07-.08.09-.1h.03s.02,0,.03,0c-.02.03-.09.12-.09.14,0,.02.06.01.07,0,0,0,0-.03.01-.05.03-.03.06-.04.09-.1.03-.05.02-.11.02-.12.01-.03.05-.06.06-.09,0-.02-.02-.02-.02-.02,0-.01.04-.02.05-.03.01-.02,0-.05.04-.08.01-.01.04-.01.05-.02l.09-.05s-.14.14-.04.12c.09-.02.11-.1.15-.15h.04s-.06.11-.06.11c0,0,.03.07.03.07.03.01.05-.03.05-.03.02,0,.09.03.1.02.01,0,.14-.19.18-.23.03-.03.05-.01.07-.04.09-.12.09-.14.2-.28.08-.1.1-.19.19-.3.03-.04.04-.02.05-.02.02.04-.05.13-.08.19-.01.03,0,.04-.02.07-.06-.03-.05.02-.1.09-.07.1-.15.2-.23.3l.1-.02c-.06.09-.09.19-.17.28.05.02.14-.06.2-.04l.05-.05c-.08.19-.05.11-.2.18-.12.06-.14.15-.2.22-.11.13-.28.26-.4.38Z"/>
      <path class="cls-10" d="M7.38,5.22c-.06,0-.04,0-.01-.05.06-.12.13-.22.19-.33.11-.19.21-.36.32-.56.17-.29.3-.57.45-.86.07-.14.12-.29.23-.42,0,0,0-.05-.01-.04-.11.12-.13.29-.24.37v-.06s-.03.06-.03.06c.01-.03.05-.09.06-.11l-.17.25c-.08.01-.11.08-.16.11-.03.01-.05.02-.07.02-.06.08-.08.04-.1.06-.01,0-.01.03-.02.04-.02.06.05.03.05.04,0,0-.05.1-.06.12-.01.02-.04.02-.05.03-.03.03-.07.1-.09.04-.01-.03.09-.21.12-.25,0,0,.06-.06.08-.09.02-.02.05-.03.07-.06.02-.04-.01-.12,0-.18,0-.04.04-.12.05-.16-.06.01-.04-.03,0-.1l.05-.19c-.07.12-.19.33-.24.45,0,0,0,.02,0,.04-.05.15-.11.29-.2.45.03.02,0,.05-.02.09-.07.14-.14.27-.19.39,0,.03,0,.05,0,.08-.02.04-.04.04-.04.04v.02c-.09.14-.08.21-.15.33-.03.05.03.02.04.03l.08-.13.02-.04v-.07s.22-.46.22-.46l.03.1s-.04.11-.07.15c.03.01,0,.05-.01.08,0,.03,0,.05-.02.09-.02.04-.05.07-.08.1.05,0,.01.03-.01.07-.17.25-.33.52-.51.78-.23.31-.46.62-.68.91-.03.04-.05.07-.1.08v.02c.06,0-.05.07-.07.1l-.21.27c-.05.06-.06.06-.09.09,0,.01.02.01.01.03-.01.02-.05.07-.08.09h.03s.08-.06.12-.1c.06-.08.07-.16.2-.24l-.04-.02c.08-.03.12-.08.17-.15.16-.26.36-.48.55-.74.04-.06,0-.09.09-.09-.06-.05.1-.18.17-.28.13-.18.32-.47.41-.63.03-.06.08-.15.11-.21.02-.03.12-.04.03-.08l.1-.14h.05c-.08.17-.19.34-.29.5-.02.04-.06.07-.01.07l.2-.32h.05c-.07.12-.12.24-.18.35-.03.05-.09.11-.1.13,0,0,.03,0-.06.12.03.02,0,.06-.03.1h.07s.05-.06.08-.1ZM8,4c.05-.02-.06.13-.06.15-.11,0-.06-.11.06-.15ZM7.87,3.85s0-.18.07-.2c.06-.02-.02.13-.02.13,0,.02.09,0-.02.14l-.04-.07ZM7.64,4.23s-.06,0-.01-.08c.09-.16.1.06.02.15-.06.01,0-.04,0-.07Z"/>
      <path class="cls-9" d="M9.53,2.55c-.15.34-.28.66-.41,1-.1.27-.2.49-.33.76-.07.13-.06.08-.08.1-.02.03-.04.1-.07.16-.17.27-.33.52-.51.79-.04-.02-.15.12-.07.12l-.02.04s-.12.05-.12.03c0,0,.03-.05.04-.07,0,0-.02-.05-.01-.08,0-.02.04,0,.06-.03.05-.04.14-.26.2-.34.03-.04.19-.18.11-.18v-.02c.04-.05.11-.17.06-.16.06-.13.14-.31.19-.41l.05-.1c.03-.05.07-.09.1-.17.03-.07.02-.18.07-.26,0-.01.03,0,.05-.04.06-.1.09-.22.13-.3.07-.13.19-.32.26-.46.08-.19-.05-.21.08-.47,0,.04.03.04.04.06.02.07-.1.17.01.18h.02s.04-.03.06-.06h.05s.02-.08.02-.08c.01,0,.02,0,.03,0Z"/>
      <path class="cls-3" d="M2.07,10.16s.1-.04.11.04c0,.03-.08.04-.08.04,0,.02.09.05.05.1-.02.03-.06.02-.08.03,0,0,.02.01.02.02,0,.02-.1.08-.09.09,0,0,.12.04.13.03.08,0,.13-.1.25-.06l-.03-.03s.04,0,.06,0c.04,0-.02-.03.02-.04.02.03.17-.03.22-.05.15-.07.18-.16.34-.11-.08.02-.13.09-.19.11-.02,0-.03-.02-.06,0,.09.01.01.06.01.06.02.02.05,0,.07,0,.06,0-.02.11.02.13,0,0,.06-.02.12,0,.02,0,.08.05.08.06-.03.05-.08-.03-.17,0-.09.03-.02.07-.02.08-.03.05-.09-.02-.13,0,.1.04-.02.03-.04.05,0,0,.03.02,0,.02-.02,0-.08,0-.1.03,0,0,.01.04-.04.07-.02.01-.03-.03-.07,0-.03.03.04.1.03.1,0,0-.04.02-.08.04-.01,0-.06-.02-.1,0-.08-.03-.14-.03-.21-.08-.08-.06-.22-.43-.2-.51.03-.07.1-.16.15-.23Z"/>
      <path class="cls-3" d="M2.2,7.94c-.07.03-.1.02-.14.04-.05.02-.08.06-.11.08,0,0-.03-.02-.04-.01-.16.08-.36.15-.52.22-.03.01-.04.07-.07.02-.03,0,0,.02-.02.03-.05.06-.08.04-.15.06-.02,0,.04.06-.04.01v.05s-.03-.03-.06-.01c.03.05-.11.07-.15.09-.06.03-.11.1-.23.07l.02.02s-.02-.03-.06-.02c.06.08-.17,0-.14.06.02.03.02.05.03.07,0,0,.07.03.05.05-.03.01-.03-.02-.04-.02,0,0-.03.01-.03.01-.01,0,0-.03-.04-.02v.07s-.06-.03-.06-.03c0,.05-.05.03-.08.04,0,0,0,.02,0,.02-.04.02-.05-.01-.06-.02-.01,0-.03.01-.03.02-.02,0-.13-.07-.13-.09-.01-.03.03-.03.05-.05,0-.01-.01-.03,0-.04.01,0,.08,0,.11-.01.01,0,0-.02.02-.03.19-.06.43-.1.61-.17.08-.03.11-.1.18-.13.34-.14,1-.34,1.35-.55.21-.11.4-.24.59-.37l.08-.06c.08-.05.27-.24.33-.27.02.06-.06.08-.06.14-.05-.02-.03.02-.08.07-.06.06-.18.11-.21.14-.01.01,0,.03-.04.05-.03.02-.18.09-.18.09,0,0,.08.04-.01.02l-.02.04-.04-.03c-.01.07-.04.05-.09.08-.04.03-.14.1-.16.07h-.02c.05.06-.04.03-.04.04-.02.01-.11.07-.14.09-.03.02-.05.04-.1.06Z"/>
      <path class="cls-10" d="M6.24,4.79s-.06.11-.05.13c0,.01.05,0,.05.01,0,0-.08.09-.1.13-.03.05.01.15-.12.13.07-.11.1-.15.1-.24,0-.01.02-.05.02-.05-.01-.04-.08.06-.09.06,0,0-.03,0-.05.01-.09.07-.04.1.02.1-.02.04-.03.07-.06.11l-.12.18s-.02-.02,0-.06v-.04c.04-.11.02-.1.03-.16,0,0,.06-.12.06-.13.04-.06.23-.21.28-.29.08-.11.17-.28.23-.39.01-.03.06-.1,0-.09,0,0,0-.03.02-.06.06-.06.16-.09.16-.19.04-.06.03-.11.1-.16.02-.01.07-.01.07-.05h-.03s.14-.28.18-.35c.03-.05.17-.31.21-.39.05-.11.07-.22.12-.33.02-.03.02-.07.06-.06,0,.03-.02.09-.03.13-.01.05-.03.11-.05.16l.05-.02-.05.13.11-.11c-.01.06-.04.12-.06.18,0,.02-.02.04-.03.05-.08.07-.11.17-.17.25v-.11s-.09.14-.09.14l.06-.03s-.04.08-.06.09v-.04c-.09.08-.18.19-.13.25l-.02.04c-.13.07-.13.17-.19.26-.04.06-.19.18-.1.23l-.03.05c-.05.08-.04.11-.08.17-.04.07-.12.15-.17.22-.02.03-.07.06-.01.06-.01.02-.03.04-.04.05Z"/>
      <path class="cls-10" d="M6.29,4.27c-.09.12-.16.25-.25.36-.05.06-.12.08-.13.15,0,0-.01.02-.01.02-.1-.02-.23.19-.27.28-.04.06-.04.12,0,.13v.02c-.13.17-.33.41-.43.57l-.1.02c.08-.1.16-.2.23-.3.05-.07.03-.11.1-.09.03-.03.01-.04.02-.07.03-.06.1-.14.08-.19,0,0,.02-.03.02-.03.04-.05.03-.09.04-.11.1-.18.17-.18.26-.28.07-.09.17-.26.24-.36.06-.1.1-.16.14-.25.02-.04.09-.13.03-.13l-.09.14h-.04c.04-.07.08-.13.12-.19.03-.05.11-.04.12-.06.01-.02,0-.05.02-.09.05-.09.22-.3.29-.42.07-.12.09-.23.15-.35.05-.1.05-.12.13-.19.05,0,.01.03,0,.06-.05.1-.18.28-.1.34-.03.06-.05.14-.09.19-.01.01-.03.01-.04.02-.02.02-.04.05-.05.06,0,0-.02,0-.03,0-.06.04-.16.28-.21.36-.09.15-.21.22-.1.32,0,0,0,.01,0,.02-.01.02-.03.05-.04.07Z"/>
      <path class="cls-2" d="M7.72,3.22c-.07.23-.27.49-.37.72-.02.04-.01.05-.02.08h-.19c-.02.06-.07.09-.11.13-.11,0,.05-.11.08-.16.07-.11.14-.33.21-.43.07-.1.19-.26.21-.37,0-.01-.02,0,0-.06h.03s0,.11.02.12c.03.02.05,0,.1-.02.01,0,.04-.02.04-.02Z"/>
      <path class="cls-10" d="M9.31,2.47c-.13.26,0,.27-.08.47-.06.14-.19.33-.26.46-.04.08-.07.2-.13.3-.02.04-.04.03-.05.04-.05.08-.04.18-.07.26-.03.07-.07.11-.1.17l-.09.02s.03-.04.05-.06l.03-.02c.1-.11.05-.08.04-.14,0,0,.02-.05.02-.06,0,0,.08-.1.09-.11,0-.02-.03-.02-.02-.04.02-.09.17-.33.15-.4,0-.01-.04-.03-.05-.04v-.02c.07-.04.09-.16.11-.17,0,0,.1-.06.1-.07.01,0,.05-.01.08-.02.04-.01.03.03.07-.05.04-.09.03-.07,0-.09-.01,0-.07-.03-.07-.04,0,0,.06-.17.07-.2.02-.05.12-.26.15-.28.05-.05,0,.08-.01.1Z"/>
      <path class="cls-5" d="M9.89,2.4s-.02.05-.05.09c-.05.04-.08-.04-.14.09-.02.03.02.05,0,.1-.02.06-.06.1-.07.14-.05.12-.07.27-.13.41-.03.07-.01.13-.09.11-.02.03.03,0,.02.03,0,0-.09.16-.1.18-.03.05-.07.07-.09.09-.01-.04.02-.12.04-.18.07-.17.21-.39.26-.56.02-.07,0-.09.05-.22,0,0,.02-.02.03-.03.02-.05-.01-.06-.02-.08-.02-.04.03-.07-.07-.02,0,0-.02,0-.03,0l-.02.08h-.05s.04-.09.06-.14h-.03s-.03.11-.07.12c.02-.06.05-.15.05-.2.03-.05.04-.11.08-.16l-.04.18s.02-.04.05-.07c.03-.02.06,0,.07,0l.04-.1c.08,0-.04.18.01.19.05,0,.08-.05.13-.08.02-.01.05-.02.06-.03l-.05.08.1-.03Z"/>
      <path class="cls-4" d="M6.45,4.2c-.05.07-.09.09-.11.13-.02.03-.05.12-.07.16h-.08c.06-.05.11-.15.11-.21.01-.02.03-.05.04-.07v-.02s.04,0,.06-.03c.05-.06.02-.07.08-.07.06,0,.04-.04.1-.1l-.03-.12c.02-.08.08-.22.12-.3.02-.03.03-.05.01-.06,0,0,.03-.04.05-.06.01-.01.03,0,.04-.02.03-.04.06-.13.09-.19.06-.1.11-.18.17-.29l.03.02s-.02,0-.03.03c-.11.19-.15.29-.06.4-.04.06-.2.3-.18.34-.15.02-.14.12-.14.21,0,.09-.1.12-.16.19-.02.03-.02.05-.02.06Z"/>
      <path class="cls-2" d="M6.96,2.83c-.08.08-.08.1-.13.19l-.07-.04s-.05.15-.07.19c-.02.02-.04.05-.06.07-.03.04-.05.1-.08.14-.04.04-.06-.01-.08.1-.1.03-.12-.04-.2.07h-.01s0-.02,0-.02v-.02s.11-.08.12-.14c.02,0,.03,0,.04.01.01.02-.05.08-.02.08.02-.04.06-.06.08-.09.02-.03.11-.2.13-.24.01-.03.02-.07-.01-.08.1-.14.17-.29.26-.44.03.01-.02.09-.03.13-.03.06-.09.13-.12.19.07-.03.09-.13.13-.19.03.01.06-.04.09-.07l.02-.02s0,0,.01,0c.02,0,.04-.02.05-.01.08.02.03.11-.05.18Z"/>
      <path class="cls-9" d="M7.61,4.89l-.03.02s-.02-.05-.03-.06c.11-.19.21-.36.32-.56.17-.29.3-.57.45-.86.07-.14.12-.29.23-.42,0,0,.03,0,.05,0l-.02.04c-.06-.01-.05.07-.06.1l-.02.04c-.06.14-.14.3-.2.44l-.24.44-.08.16c-.12.22-.24.45-.38.67Z"/>
      <path class="cls-8" d="M7.16,3.01c.05-.11.07-.22.12-.33.02-.03.02-.07.06-.06l.03-.05c-.05,0-.01-.03,0-.06.05-.11.09-.23.12-.34,0,0-.02-.01-.03,0-.02.04-.08.15-.1.2-.04.08-.09.25-.15.3-.01.01-.03,0-.04.02-.05.1-.09.15-.15.26l.03.02s-.02,0-.03.03c-.11.19-.15.29-.06.4.03-.05.17-.31.21-.39ZM7.32,2.52s0,.06-.04.07l.04-.07Z"/>
      <path class="cls-12" d="M5.94,4.07s-.03.06-.05.09c-.08.11-.15.09-.22.27-.01.02.01.01-.04.1-.09.16-.23.34-.35.5-.17.23-.34.48-.51.7l-.03.03s-.05.05-.08.08c-.04.05-.07.13-.15.15-.1.02,0-.07.04-.12.01-.01.04-.03.06-.05,0-.01-.02-.02-.01-.03.02-.07.07-.1.12-.15.04.03.06-.05.07-.07,0,0,.1-.08.13-.11,0,0-.03-.01-.02-.02.1-.1.11-.13.19-.23.22-.3.39-.47.51-.76,0-.02.09-.19.1-.2,0,0,.01.02.04,0,.08-.04.23-.31.29-.4.02-.03,0-.04.04-.03-.04.08-.09.16-.14.25Z"/>
      <path class="cls-17" d="M8.82,3.31s-.02.02-.03.02c-.02,0-.1-.05-.12-.03-.01,0-.06.11-.12.1.06-.11.11-.22.17-.31l.02-.04c.06.01.06-.1.08-.14,0-.02,0-.04.01-.07l.21-.48s.04-.03.04-.02c-.04.09-.06.2-.09.29-.02.06-.09.13-.1.19,0,.02.05.02.06.03,0,0,.01.14,0,.15l-.03.03s-.02-.01-.04.01c-.01.02-.11.27-.05.26v.02Z"/>
      <path class="cls-17" d="M7.79,3.37s-.12.1-.13.14l-.19.35s-.1.13-.14.18c-.03.05-.08.13-.1.18-.01,0-.02,0-.03,0,.03-.05.05-.09.07-.14,0-.02.05-.06,0-.05-.03.01-.13.11-.14.12-.03.02-.05-.03-.09.09-.02.04,0,.04.03.04,0,0-.02.04-.03.05h-.01s-.04,0-.04,0c0,0,.01-.04.01-.07,0-.01-.02-.02-.01-.03,0,0,.05-.06.06-.08.03-.04.08-.07.11-.12h.19s0-.05.02-.09c.1-.22.3-.49.37-.72.02-.01.04-.06.06-.05-.01.06-.08.21.02.17,0,0,0,.02,0,.04Z"/>
      <path class="cls-3" d="M1.09,10.02c-.17-.1-.2-.12-.21-.23,0-.02-.04-.04-.04-.07,0,0,.1-.09.12-.11.03-.01.12-.06.17-.04.01,0,.08.06.08.06-.01.03-.15.04-.09.08h.11s-.03.02-.03.02h.12s-.11.04.03.03l-.04.02h.08c-.07.07-.12,0-.16.03-.02.01,0,.06-.03.06-.03,0-.06-.03-.1-.02.07.05-.11.07.06.09l-.11.02.03.06Z"/>
      <path class="cls-4" d="M6.58,3.06s.03.04.01.08c-.01.04-.11.21-.13.24-.02.03-.07.06-.08.09-.03,0,.03-.06.02-.08,0-.01-.02-.01-.04-.01-.01.06-.09.11-.11.14,0-.07,0-.13-.02-.18,0,0-.03,0-.03,0,0-.09.14-.23.24-.25-.02.06,0,.02.03.02.01,0,.03,0,.04,0-.04.07.02.04.05-.01l.02-.04Z"/>
      <path class="cls-3" d="M6.15,3.7l-.04.07v.02s-.03,0-.03,0h0s-.01.03-.01.03c-.05-.01-.02,0-.04.03-.06.08-.21.36-.29.4-.02.01-.04,0-.04,0,0,0-.09.18-.1.2-.12.3-.29.47-.51.76-.08.1-.09.14-.19.23-.01.01.03.01.02.02-.03.03-.12.1-.13.11-.02.02-.03.1-.07.07.23-.3.64-.75.79-1.04.06-.11,0-.13.12-.31.07-.1.13-.09.22-.21.12-.18.25-.37.38-.56,0,0,0,.01,0,.02-.02.05-.07.11-.09.16Z"/>
      <path class="cls-5" d="M9.11,3.03s-.07.02-.08.02c.08-.15-.11.07-.12-.04l.03-.03s0-.14,0-.15c.04-.05.13-.22.17-.24,0,0,0,.1.07.05,0,.03-.06.19-.07.2,0,.01.06.03.07.04-.02.05-.07.1-.06.14Z"/>
      <path class="cls-17" d="M7.56,3.13s.08-.14.07-.15c-.03-.01-.09.12-.1.15-.02.05,0,.04,0,.06-.05.03-.13.2-.15.22,0,0-.02,0-.03,0-.01-.09.09-.17.11-.21,0-.02,0-.05,0-.08.02-.06.06-.13.06-.18,0-.01,0-.03.02-.04.01-.01.09-.03.04-.09,0,0,0-.03.02-.03,0,0,.05.01.07,0l-.03.06.07-.02s-.03.09-.05.13c-.04,0-.05.02,0,.02-.01.03-.05.16-.06.18,0,.02.03,0,.04.02,0,.02-.08.09.02.08-.04.02-.07.04-.1.02-.02-.01-.02-.1-.02-.12Z"/>
      <path class="cls-4" d="M7.22,3.42v.02s-.05.07-.07.11c-.02.03-.03.05-.05.09-.03.05-.06.1-.09.15-.03.06-.04.11-.09.17,0,.01-.03.03-.05.05l-.02.04-.02.04h-.07s.04-.04.07-.08c.19-.25.35-.59.45-.86,0-.02.02-.04.03-.05.04.01.04-.03.06-.06.03-.05.11-.2.12-.21,0,0,.04,0,.06,0-.01.09-.1.16-.15.25-.05.09-.13.25-.18.34Z"/>
      <path class="cls-10" d="M8.22,4.03c.02-.06.02-.15.06-.22l.27-.53s-.03,0-.04,0c0,0,.02-.08,0-.09l.02-.04s.04-.06.06-.1l.02-.04s.02-.02.03-.02c.02,0-.02.07.03.06-.03.05-.06.08-.08.14l.12-.1c-.05.1-.11.21-.17.31-.03.06-.09.16-.1.2,0,.03.05,0,.04.02-.14.07-.16.29-.25.42Z"/>
      <path class="cls-17" d="M7.93,3.59c-.06.08-.08.04-.1.06-.01,0-.01.03-.02.04-.06.07-.12.17-.06.19-.03.03-.07.1-.09.04-.01-.03.09-.21.12-.25,0,0,.06-.06.08-.09.02-.02.05-.03.07-.06.02-.04-.01-.12,0-.18,0-.04.04-.12.05-.16.03-.07.08-.17.11-.25.08,0-.1.34-.11.39,0,.04.04.03.05.05,0,0,0,.03,0,.04,0,.05-.05.14-.08.19Z"/>
      <path class="cls-4" d="M4.03,6.41c-.1.12-.06.09-.11.18-.02.04-.07.13-.1.16-.02.02-.03,0-.09.05h-.01s-.04-.04-.04-.04l-.15.15c-.08.08-.08.1-.12.15,0,0-.04,0-.05,0-.06.04-.25.22-.33.27,0-.03.05-.05.07-.07.19-.15.37-.32.54-.49.12-.12.22-.26.37-.36Z"/>
      <path class="cls-4" d="M4.47,5.93s-.04,0-.05.02c-.03.03-.02.07-.04.08-.01.01-.05.02-.05.03,0,0,.02,0,.02.02,0,.03-.04.06-.06.09,0,.01,0,.07-.02.12-.03.06-.07.07-.09.1-.02.02-.01.05-.01.05-.01.01-.07.02-.07,0,0-.02.07-.12.09-.14.06-.09-.02-.07,0-.11.04-.07.16-.21.24-.27.05-.04.02,0,.05,0Z"/>
      <path class="cls-2" d="M9.89,2.4l-.1.03.05-.08c.26-.18.1-.23.17-.43.03-.1.05-.14.13-.17-.12.31,0,.31-.25.65Z"/>
      <path class="cls-2" d="M7.6,2.81c.05.05-.03.07-.04.09-.01.01-.01.03-.02.04-.1.14-.19.33-.27.49h-.05c.05-.1.13-.25.18-.35.06-.09.14-.16.15-.25.01,0,.04,0,.05-.02Z"/>
      <path class="cls-10" d="M2.06,10.15c-.09.04-.04-.03-.08-.03-.02,0-.33.07-.41.07-.06,0-.05-.02-.06-.02.11-.01.05-.05.11-.08.09-.05.2-.07.29-.03.05.02.04.04.05.05,0,0,.04,0,.05.01l.03.02h.01Z"/>
      <path class="cls-2" d="M8.72,3.04l-.02.04-.12.1c.02-.05.05-.09.08-.14.03-.04.06-.07.09-.13.04-.09.24-.55.25-.58.01,0,.01.02.02.02l-.21.48s0,.05-.01.07c-.04.03-.06.1-.08.14Z"/>
      <path class="cls-3" d="M.59,9.32s-.05-.01-.05-.06c0-.06.14-.05.03-.09.02,0,.09-.01.09-.01l.13.03c.04.08-.09.1-.21.14Z"/>
      <path class="cls-3" d="M.39,9.1h-.06c.08-.04-.13-.1,0-.13.06-.01.16,0,.21-.03l.03.04s0-.02,0-.03c.03-.03.13.02.04.05-.03.01-.13-.01-.08.03l-.05-.02c-.07,0,0,.03,0,.03-.03.03-.15-.02-.09.05Z"/>
      <path class="cls-17" d="M8,3.58c.06-.08.03-.11.04-.17,0-.04.08-.21.1-.23,0,0,.02,0,.03,0,0,.02,0,.01,0,.04-.02,0-.05.05-.03.06l-.02.04c-.02.06,0,.04.03.06,0,0-.01.03-.02.04v.02s.03,0,.04,0c0,.02-.02.03,0,.04-.08.01-.11.08-.16.11Z"/>
      <path class="cls-1" d="M4.07,10.83c-.1.05-.11.09-.12.1-.03.02-.21.11-.23.11-.02,0-.04,0-.04,0-.05-.02-.08-.01.02-.05.1-.04.26-.1.37-.15Z"/>
      <path class="cls-10" d="M7.37,2.56c-.05,0-.01-.03,0-.06.05-.11.09-.23.12-.34.03-.01.03-.02.05-.04v.04s-.03.05-.03.05c-.04.1-.1.25-.15.35Z"/>
      <path class="cls-16" d="M.57,9.17s-.03,0-.05,0c.01-.02-.02-.05-.01-.07.02-.03.19-.06.25-.03-.1,0-.09.07-.1.07,0,0-.07,0-.09.01Z"/>
      <path class="cls-11" d="M9.39,2.62l-.02.04-.02.04c-.11,0,0-.1-.01-.18.05.01.07-.04.1-.11,0,.05-.03.14-.05.2Z"/>
      <path class="cls-10" d="M8.74,2.59l-.06.14h-.01s0-.04,0-.04c.06-.13.12-.27.17-.41.03.06-.06.22-.1.31Z"/>
      <path class="cls-4" d="M2.39,7.76s.05-.04.08-.06c.14-.08.28-.17.41-.26.03-.02.06-.05.1-.05-.18.13-.38.26-.59.37Z"/>
      <path class="cls-11" d="M7.01,2.65s-.04,0-.05.01c.09-.11.12-.24.19-.36.02,0,0,.08-.02.1-.04.08-.08.16-.12.24Z"/>
      <path class="cls-11" d="M7.95,2.67s.03-.07.07-.06l-.13.27s-.03,0-.04-.01c.05-.05.1-.15.1-.21Z"/>
      <path class="cls-4" d="M7.86,2.88h-.01s-.03.03-.05.04c.04-.08.1-.18.16-.24,0,.05-.05.15-.1.21Z"/>
      <path class="cls-2" d="M10.2,2.36h-.05c.03-.1,0-.08,0-.1.05.01.05-.11.11-.17-.02.07-.05.19-.07.27Z"/>
      <path class="cls-11" d="M9.71,2.14s-.02,0-.02-.04c.01-.07.05-.16.11-.23l-.09.27Z"/>
      <path class="cls-11" d="M7.31,2.74s.02-.1.03-.13l.03-.05c.04-.1.1-.25.15-.35,0,.04-.03.1-.05.15-.02.06-.03.08-.06.15-.03.08-.05.15-.1.23Z"/>
      <path class="cls-4" d="M8.34,3.22l-.17.25s0-.02,0-.04c.04-.08.11-.17.14-.25,0,0,.03.03.03.04Z"/>
      <path class="cls-8" d="M7.98,3.17c-.06.01-.04-.03,0-.1.02-.03.07-.09.08-.14h.02c-.02.07-.08.17-.11.24Z"/>
      <path class="cls-11" d="M8.74,2.59s-.12.31-.14.27c.01-.06.04-.12.06-.18v.04s.01,0,.01,0l.06-.14Z"/>
      <path class="cls-11" d="M9.95,1.89c-.04.13-.07.24-.13.37l.05-.2.09-.17Z"/>
      <path class="cls-4" d="M9.95,1.89l-.09.17c0-.1.06-.19.1-.29v.12Z"/>
      <path class="cls-4" d="M8.05,3.4h-.03s0-.04,0-.04c.03-.05.06-.13.09-.18.02-.02.03,0,.04-.01-.02.02-.09.19-.1.23Z"/>
      <path class="cls-11" d="M7.84,2.88c-.08.09-.03.09-.04.11-.01.03-.04.08-.06.12-.04-.04,0-.11.05-.19.01,0,.04-.03.05-.04Z"/>
      <path class="cls-11" d="M6.57,3.09c-.03.05-.09.09-.05.01-.01,0-.03,0-.04,0l.12-.14-.08.14s.03,0,.05-.01Z"/>
      <path class="cls-11" d="M.7,8.26c-.11-.05.14-.04.17-.02-.03.01-.15.03-.17.02Z"/>
      <path class="cls-11" d="M10.18,1.74s-.03,0-.04,0c.03-.08.1-.17.12-.26.01,0-.06.21-.07.25Z"/>
      <path class="cls-1" d="M6.83,2.75c-.04.06-.06.16-.13.19.02-.07.08-.13.12-.19h.01Z"/>
      <path class="cls-11" d="M7.29,2.28c-.06,0,.04-.14.07-.18l-.07.18Z"/>
      <path class="cls-1" d="M4.78,10.44s-.08.11-.14.08c.04-.03.1-.07.14-.08Z"/>
      <path class="cls-1" d="M4.22,10.76c.08.01-.06.08-.1.04.05-.03.08-.03.1-.04Z"/>
      <path class="cls-11" d="M8.16,3.37s-.05,0-.03-.06c.05.01.04.01.03.06Z"/>
      <path class="cls-11" d="M7.54,2.16v-.04s.03-.04.05-.04c0,.03-.04.06-.05.07Z"/>
      <path class="cls-1" d="M4.4,10.67s0,.02-.04.04c-.01,0-.03-.01-.03-.01l.07-.03Z"/>
      <path class="cls-1" d="M4.95,10.34s0,.06-.07.03c.02-.01.04-.03.07-.03Z"/>
      <path class="cls-11" d="M8.15,3.27s0-.05.03-.06c0,.02-.02.04-.03.06Z"/>
      <path class="cls-2" d="M7.68,2.97s-.03-.03,0-.02v.02Z"/>
      <path class="cls-11" d="M8.15,3.17s.02-.03.03,0c0,0-.03,0-.03,0Z"/>
      <path class="cls-11" d="M6.92,2.68l.02-.02-.02.02Z"/>
      <path class="cls-4" d="M8.14,3.4v.02s0-.02,0-.02Z"/>
      <path class="cls-4" d="M4.12,6.3s.02,0,.03-.01h-.03Z"/>
      <path class="cls-7" d="M6.26,8.58c.05-.06.04-.11.05-.13.03-.07.12-.21.17-.28.05-.08.15-.15.18-.22.02-.03,0-.03,0-.04.02-.03.07-.06.09-.08,0-.01-.02-.02-.01-.03.01-.04.07-.12.11-.17.15-.21.31-.42.46-.64.03-.04.05-.09.07-.11.03-.02.06-.02.08-.04.11-.13.2-.28.3-.42.04-.06.11-.09.15-.15.04-.06-.03-.02-.03-.03,0,0,.07-.1.09-.12.01-.02.05-.03.06-.06.02-.03.03-.09.05-.12,0-.01.04,0,.05-.02.03-.04.12-.22.15-.24.02-.02.08-.04.1-.07.02-.02,0-.05.02-.08.02-.04.09-.11.12-.16.08-.12.15-.41.21-.56.03-.08.02-.21.15-.29.02-.07.1-.26.11-.31,0-.01,0-.02-.02-.01v-.02s.05-.01.05-.01c.04-.14.29-.44.19-.49-.01.02-.05.08-.06.08h-.04c.02-.15.09-.29.15-.45.05-.14.09-.22.15-.37.04-.09.05-.24.18-.26,0,0,.02-.02.03-.03.02-.05-.01-.06-.02-.08-.02-.04.03-.07-.07-.02-.15.34-.28.66-.41,1-.1.27-.2.49-.33.76-.07.13-.06.08-.08.1-.02.03-.04.1-.07.16-.17.27-.33.52-.51.79l-.07.12-.02.04c-.26.38-.51.77-.76,1.14-.04.06-.15.21-.17.26-.01.02.06.02-.03.04,0,.1-.07.09-.07.09-.02.03,0,.05-.03.08-.06.08-.2.25-.27.33-.02.03-.1.04-.05.07-.11.05-.08.11-.13.16-.03.03-.19.17-.23.18-.14.02-.06-.03-.03-.09,0-.02,0-.04.01-.05.01-.02.16-.14.2-.19,0,0-.02-.03,0-.07,0-.03.05-.02.06-.03.02-.03,0-.04.02-.06.03-.05.16-.23.17-.24,0-.01-.04-.01,0-.06.02-.02.13-.17.16-.2.11-.13.21-.2.3-.35.02-.03.03-.09.03-.09.01-.02.06-.03.09-.07.29-.39.53-.84.8-1.24.07-.1.15-.19.22-.29v-.02s.03-.1.06-.16c.06-.13.14-.31.19-.41-.1-.09-.22.18-.33.28-.02.02-.04,0-.05.01-.07.05-.18.27-.24.34-.02.02-.03.04-.05.06,0,.05-.13.22-.16.26-.03.03-.06.02-.07.04,0,.01-.01.05-.03.08-.13.21-.22.38-.37.58,0,0,0,.03-.01.04-.1.16-.21.33-.34.5-.02.03-.03.05-.07.06-.06.08-.01.06-.02.07-.03.06-.06.04-.07.05,0,0-.08.13-.09.14-.01.02.03.02,0,.07-.02.04-.07.07-.1.11-.19.24-.36.48-.57.7-.08.09-.27.31-.34.37-.02.02-.11.02-.13.07,0,0,.02,0,.01.02-.04.07-.07.06-.12.05.15-.14.22-.29.33-.42.12-.15.43-.48.49-.61.05-.08-.02-.02.1-.17.15-.18.3-.36.45-.55.01-.02.02-.05.07-.09.02-.02.03-.03.06-.05-.05,0,0-.03.01-.07.04-.06.09-.14.16-.2l.03-.04s.08-.14.11-.18c.03-.04.16-.19.18-.22.03-.05.01-.08.1-.17.04-.04.06,0,.08-.06,0,0-.03-.02.02-.1.06-.12.17-.27.24-.39.04-.06.07-.07.09-.15.03-.1.03-.1.08-.21,0-.02.02-.04.03-.06.02-.04.02-.09.02-.1-.02.02-.11.12-.11.12,0,.01,0,.1-.04.16-.03.06-.09.1-.11.15-.03.05-.04.14-.09.22-.1.18-.27.4-.39.58-.28.42-.61.84-.93,1.25-.03.04-.05.09-.1.15-.04.04-.08.06-.1.08,0,.01.02.01.02.03-.02.04-.07.07-.1.1-.34.45-.66.92-1.09,1.34l-.11.18v.05c.1-.07.23-.18.33-.26.69-.61,1.27-1.29,1.69-1.97.22-.27.39-.55.6-.82-.05-.03.02-.02.03-.04.02-.03.02-.07.06-.11.07-.1.16-.21.21-.31.03-.06.03-.11.07-.18.04-.07.15-.15.22-.23.05-.07.24-.34.26-.36.02-.02.08.01.06.06-.1.17-.16.34-.3.51-.03-.04-.07,0-.11,0,0,.02-.02.05-.03.08,0,.03.05,0,.06,0,.04.02-.11.2-.15.26-.1.16-.19.36-.3.5,0,.01-.04,0-.05.02-.19.26-.39.62-.61.88-.03.04-.09.06-.13.11-.06.07-.09.18-.18.26-.04.03-.07,0-.1.06h.06c-.11.1-.09.15-.13.21-.2.32-.49.64-.74.96-.06.08-.11.21-.15.25-.03.04-.11.08-.14.13,0,.02.15-.04.16-.04.07-.07.05-.07.17-.15.02-.01.18-.12.19-.12.11-.1.16-.15.3-.27.07-.06.12-.13.2-.17l-.08.15c-.13.12-.08.08-.1.14-.04.12-.12.12-.16.18-.02.03-.01.07-.03.1-.06.1-.2.24-.12.3,0,0,.04,0,.05,0,.02-.02.2-.21.24-.25ZM6.24,8.53h.02s-.02.01-.02,0ZM8.53,5.13c-.13.25-.37.51-.54.76-.05.08-.13.21-.18.29-.02.03-.08.05-.09.09,0,.02.02.03.02.04,0,.04-.1.13-.14.18-.06.08-.05.08-.14.17-.03.03-.12.18-.11.08,0-.12.19-.32.28-.45.19-.29.38-.59.55-.88.15-.25.32-.5.44-.74.02-.03.07-.09.09-.13.04,0,.04,0,.04.03,0,.07-.06.2-.1.29-.02.05-.02.07-.07.14l-.02.04s0,.06-.02.09ZM6.21,7.91s.03.02,0,.04c-.03.02-.03-.02,0-.04Z"/>
      <path class="cls-9" d="M6.32,8.75s-.04.06-.05.08l-.02.02-.03.04s-.09.05-.14.11c-.04,0-.09-.02-.15,0,.06-.05,0-.04,0-.04,0,0,.01-.01.02-.02.12-.11.04-.06.07-.1.02-.02.2-.21.24-.25.05-.06.04-.11.05-.13l.18-.13c.09-.08.04-.13.11-.21l.49-.67c.05-.08-.02-.05-.02-.06,0-.04.06-.04.06-.04.07-.05.09-.16.13-.22.03-.04.08-.06.1-.09.02-.03,0-.05.02-.08.02-.02.06-.04.09-.07.15-.16.42-.47.52-.64,0-.01-.02-.01-.02-.03.02-.04.07-.08.09-.11.02-.03.12-.24.13-.25h.05s.1-.17.1-.17l.05.02c.06-.06-.06-.02,0-.07,0,0,.07-.05.08-.06.04-.02.04.04.03.08-.02.06-.08.15-.1.22-.01.02,0,.04,0,.04,0,.01-.04.06-.05.08,0,.01-.04.03-.07.08-.02.04-.05.09-.08.14l-.04.03h0s-.04.07-.04.07c0,0-.01,0-.03.03-.07.1-.15.21-.18.3,0,.01-.05.08-.05.08v.04c-.14.19-.24.39-.39.59-.36.49-.78.95-1.19,1.41Z"/>
      <path class="cls-12" d="M2.75,11.09s-.02-.04.08-.06h-.09s.03-.03.03-.03c-.2.04-.07-.04-.07-.06,0-.02-.07-.1-.04-.12.02,0,.23-.12.27-.14.14-.06.23-.09.39-.17.2-.1.47-.21.67-.34.17-.1.25-.21.38-.32.04-.02.09-.06.13-.09-.03-.03-.08.03-.1.04-.03,0-.04-.02-.07-.02-.01,0-.04.03-.07.04-.02,0-.04,0-.04,0-.09.04-.24.13-.32.15-.05.02-.12,0-.15,0-.02,0-.12.1-.17.04.17-.09.32-.19.47-.3.04-.02.1-.05.13-.07.04-.03.05-.06.08-.09.06-.04.09-.02.1-.02.01,0,.03-.04.05-.07,0,0,.11-.08.11-.09.01,0,.02.02.04,0,.02-.01-.03,0-.01-.03.02-.02.11-.07.16-.11.11-.09.16-.14.27-.24.03-.03.05-.06.08-.09.02-.02.04,0,.05-.01.02-.02-.02,0-.02-.02,0,0,.06-.03.08-.06.08-.08.16-.19.22-.25,0,0,.03,0,.05-.01.07-.06.11-.15.18-.23-.06,0,.04-.08.03-.11,0-.01-.05-.03-.06-.02-.02,0-.04.07-.07.09,0,0-.11.04-.11.02-.05.05-.12.14-.18.18-.02.01-.03,0-.07.03-.07.06-.09.11-.13.14,0,0-.04,0-.04,0-.13.12-.21.2-.36.32-.1.08-.17.13-.29.23-.1.07-.28.16-.38.23-.15.1-.25.21-.47.32-.04.02-.11.03-.14.05-.04.02-.06.08-.1.1-.01,0-.25,0-.1.06-.05.03-.04-.03-.11,0-.04.03-.02.06-.03.06-.08.04-.2.08-.29.12-.01,0,.03.01-.02.04-.04.02-.2.08-.23.09-.05.01-.07-.02-.11,0,.12.05-.11.05-.09.02,0,0,.06-.02.08-.04.02-.03-.02-.05-.02-.05,0,0,.12-.03.12-.05,0-.01-.06-.03-.05-.05,0-.01.04-.03.05-.05,0-.02,0-.04.01-.05.04-.02.17-.08.19-.05h.02s.03-.06.06-.08c.02-.01-.02-.02.03-.04.04-.02.15-.07.19-.08.16-.06.52-.17.41-.26-.04.01-.1.04-.1,0,0-.03.13-.06.17-.08,0,0,0,.03.02.03.03,0,.12,0,.14.02,0,0-.11.11.05.09.04-.03.05-.06.06-.07-.02-.02-.08,0-.03-.05.15-.12.28-.18.43-.29.31-.22.71-.54.92-.78.03-.04-.02-.02.04-.08.05-.04.04,0,.07-.03-.06-.02.16-.15.03-.16-.05.04-.11.09-.15.14-.08.06-.24.17-.34.25-.37.32-.77.67-1.23.92-.03-.02-.08,0-.14.02-.13.08-.27.15-.42.21-.15.06-.36.16-.49.21,0,0,0,.02-.01.02l.05.04h-.06c.06.03-.19.09-.22.09-.02,0-.03-.02-.04-.03,0,0-.03,0-.04,0-.03.03-.16.05-.03.08l-.1.03s.04,0,.05.01c.01,0,.06,0,.03.02h.01s.01.02.01.02c.04,0,.1-.04.11.04,0,.03-.08.04-.08.04,0,.02.09.05.05.1-.02.03-.06.02-.08.03,0,0,.02.01.02.02,0,.02-.1.08-.09.09,0,0,.12.04.13.03.08,0,.13-.1.25-.06l-.03-.03s.04,0,.06,0c.04,0-.02-.03.02-.04.02.03.17-.03.22-.05.15-.07.18-.16.34-.11-.08.02-.13.09-.19.11-.02,0-.03-.02-.06,0,.09.01.01.06.01.06.02.02.05,0,.07,0,.06,0-.02.11.02.13,0,0,.06-.02.12,0,.02,0,.08.05.08.06-.03.05-.08-.03-.17,0-.09.03-.02.07-.02.08-.03.05-.09-.02-.13,0,.1.04-.02.03-.04.05,0,0,.03.02,0,.02-.02,0-.08,0-.1.03,0,0,.01.04-.04.07-.02.01-.03-.03-.07,0-.03.03.04.1.03.1,0,0-.04.02-.08.04-.01,0-.06-.02-.1,0,.07.03.14.06.23.08.05.01.16,0,.2.03ZM3.75,9.75s.13-.05.16-.07c.03-.02-.05-.01,0-.03.04,0,.13,0,.08.05-.01,0-.17.08-.18.08-.02,0-.06-.02-.06-.02Z"/>
      <path class="cls-13" d="M4.25,9.82s.05-.03.07-.04c.03,0,.04.02.07.02.02,0,.07-.07.1-.04-.04.03-.09.06-.13.09-.13.11-.21.22-.38.32-.2.12-.46.23-.67.34l.16-.02c.05-.05.36-.13.3-.17h.02s.22-.11.3-.15c.07-.04.06-.08.14-.07.02-.06.19-.19.28-.25.05-.04.12-.03.15-.06.03-.03-.02-.05-.02-.07.01-.04.13-.1.16-.14.02-.02-.03-.01,0-.04.02,0,.04.02.06,0,.12-.08.07-.09.08-.1.12-.11.42-.29.54-.41.03-.03.01-.05.05-.08h.08c.07-.08.31-.32.21-.33-.06-.01-.11.07-.13.09-.02.01-.04,0-.05.02-.15.12-.26.27-.34.33-.02.01-.04,0-.05.01-.05.05-.08.07-.14.12-.01.01-.04,0-.06.01-.08.07-.03.15-.24.18l.05.03s-.25.1-.33.19c-.02.02.04.05-.03.07,0,0-.04-.02-.08,0-.04.01-.06.05-.09.07-.04.02-.19,0-.12.07,0,0,.02.01.04,0ZM4.48,9.78s.03.03-.01.04c-.04.01-.03-.03.01-.04Z"/>
      <path class="cls-6" d="M4.92,8.71c-.2.17-.43.36-.67.52-.21.14-.41.33-.62.42-.25.11-.35.05-.13-.02.06-.02.13-.02.19-.05.04-.03.05-.06.06-.07.02-.02.2-.09.24-.12.01,0-.03-.01.01-.04.12-.09.27-.16.41-.28.06.03.12-.02.04-.03.15-.14.29-.27.42-.39l.17-.16-.11.18v.05Z"/>
      <path class="cls-13" d="M5.65,8.35c-.06,0,.04-.08.03-.11,0-.01-.05-.03-.06-.02-.02,0-.04.07-.07.09,0,0-.11.04-.11.02.04-.04.09-.11.14-.15.01-.01.04,0,.05-.02.05-.03.1-.11.16-.1.09,0-.03.18-.09.25-.02.03-.05.04-.05.04Z"/>
      <path class="cls-12" d="M7.99,5.07l-.06.1c-.11.03-.02-.17.06-.19.02,0,.03.02.03.02,0,.02-.02.05-.03.08Z"/>
      <path class="cls-12" d="M5.95,8.93l-.1-.02s.08-.07.12-.09c0,0,.04,0,.05,0-.03.04.04-.02-.07.1Z"/>
      <path class="cls-3" d="M3.4,9.51s-.1.04-.1,0c0-.03.13-.06.17-.08,0,0,0,.03.02.03-.03.03-.05.04-.09.05Z"/>
      <path class="cls-13" d="M5.62,8.14s-.02,0-.02,0h.02Z"/>
      <path class="cls-5" d="M2.14,9.99s-.03,0-.04,0c0,0-.02-.03,0-.05.04-.03.15-.06.22-.07.07-.02.05-.04.1,0,0,0,0,.02-.01.02-.09.04-.17.08-.27.1Z"/>
      <path class="cls-3" d="M2.41,9.89l.05.04h-.06c.06.03-.19.09-.22.09-.02,0-.03-.02-.04-.03.1-.02.19-.06.27-.1Z"/>
      <path class="cls-3" d="M3.82,9.77s-.06-.02-.06-.02c0-.02.13-.05.16-.07.03-.02-.05-.01,0-.03.04,0,.13,0,.08.05-.01,0-.17.08-.18.08Z"/>
      <path class="cls-8" d="M2.02,10.12s.06,0,.03.02l-.03-.02Z"/>
      <path class="cls-7" d="M9.08,4.99v-.1c-.04.06-.07.16-.15.16.23-.39.45-.79.63-1.2.2-.45.42-.99.58-1.49h.05c-.03.1-.08.27-.11.36l-.16.38s0,.16.05.13c-.11.08-.18.28-.2.4,0,.03.03.01.01.05-.03.07-.08.08-.11.13-.23.37-.4.83-.59,1.18Z"/>
      <path class="cls-8" d="M8.84,5.68s-.03-.1-.02-.14c.05-.17.13-.33.23-.51l.02-.04v-.1c-.04.06-.07.16-.15.16l-.12.2c-.13.22-.25.42-.37.64-.01.03-.03.06-.05.1-.01.02-.03.04-.04.06.06,0-.04.12.11.04.1-.06.18-.17.25-.26v-.02s.05-.09.09-.08l.03-.04ZM8.78,5.42c-.05,0,.04-.11.06-.09.04.04-.07.18-.1.23-.02.04-.07.23-.16.25-.01,0-.05-.02-.05-.02,0-.02.18-.32.24-.37Z"/>
      <path class="cls-5" d="M8.61,6.14s.04.03,0,.06c0,0-.04-.02-.04.03.12-.02.03.16-.07.17-.04,0,.03-.06-.03-.04-.1.11-.01.07,0,.08,0,0-.19.2-.15.25-.08.02-.07.08-.11.14-.04.05-.1.09-.13.13-.08.11-.19.26-.28.38-.05,0-.06,0-.01-.05.13-.16.33-.38.42-.54.02-.03,0-.06.04-.1.04-.06.15-.16.18-.22.01-.03-.02-.04.02-.1.03-.04.13-.13.17-.19Z"/>
      <path class="cls-7" d="M8.84,5.68s-.03-.1-.02-.14c.05-.17.13-.33.23-.51.05-.01.02.03,0,.06-.04.08-.08.18-.11.24-.05.14.04.11-.11.34Z"/>
      <path class="cls-5" d="M7.63,7.53h-.02c.05-.05.09-.14.13-.11-.04.04-.08.09-.1.11Z"/>
      <path class="cls-6" d="M8.74,5.8s.04-.09.08-.08v.02s-.05.05-.08.06Z"/>
      <path class="cls-5" d="M8.56,6.42s-.02.01-.02,0h.02Z"/>
      <path class="cls-12" d="M5.89,9.45l-.04.02h0c-.25.22-.54.45-.79.61-.12.08-.18.09-.19.09-.03.03-.03.05-.08.1-.07.06-.2.11-.29.16-.07.04-.11.11-.21.1-.17,0,0-.07.04-.1.04-.03.08-.11.12-.13.1-.07.54-.34.67-.45.06-.04.07-.05.13-.11.09-.03.14-.1.16-.12.08-.07.14-.13.24-.2.11-.08.35-.28.43-.38.07-.05.16-.13.21-.18.22,0-.06.2-.19.34-.03.03-.08.09-.03.08-.06.05-.13.11-.19.17Z"/>
      <path class="cls-8" d="M6.47,8.65c.18-.19.44-.47.63-.68,0-.01.09-.15.12-.11.03.03-.07.18-.12.25-.23.31-.45.65-.73.95-.29.31-.6.58-1.01.87-.08.06-.19.15-.28.21-.03.02-.05,0-.06.01-.04.03-.02.05-.06.08-.04.03-.12.06-.16.1-.02.02.02.02.02.02-.02.04-.07.02-.1.04-.2.08-.37.22-.48.26-.1.04-.2.04-.28.05-.07.01-.13.06-.16.03.22-.12.38-.25.57-.38.04-.03.05-.06.09-.04-.03.02-.08.1-.12.13-.04.04-.21.09-.04.1.11,0,.15-.07.21-.1.09-.05.21-.11.29-.16.06-.04.05-.07.08-.1,0,0,.07,0,.19-.09.24-.16.54-.39.79-.6.04-.03.04-.04.04-.04.06-.06.13-.11.19-.17.08-.08.23-.23.3-.31.04-.04.22-.3.23-.32,0-.02-.05-.01-.05-.02,0,0,.04-.04,0-.03l-.1.05Z"/>
      <path class="cls-5" d="M5.66,9.42c-.1.07-.16.13-.24.2-.11.03-.13.09-.16.12-.06.06-.07.06-.13.11-.05-.04-.18.1-.2.03,0-.06.3-.27.33-.35.16-.1.5-.45.61-.52.02,0,.04-.02.06-.02.06-.01.11,0,.15,0-.06.06-.11.12-.17.18-.08.08-.22.17-.25.25Z"/>
      <path class="cls-6" d="M8.37,6.05c.06,0-.04.12.11.04.1-.06.18-.17.25-.26.03.02,0,.05-.02.09-.02.04-.08.14-.09.16-.06.09-.19.11-.31.33-.03.06-.05.15-.07.19-.02.03-.06.07-.08.09-.05.08-.24.43-.34.37-.03-.02.06-.2.1-.26.13-.23.32-.49.46-.75Z"/>
      <path class="cls-13" d="M6.08,9.28c-.05,0,0-.05.03-.08.13-.14.41-.34.19-.34.02-.02.08-.11.1-.13l.07-.08.1-.05s-.01.03,0,.03c0,0,.06,0,.05.02,0,.02-.19.27-.23.32-.07.08-.21.23-.3.31Z"/>
      <path class="cls-8" d="M6.3,8.86c-.05.06-.14.14-.21.18.04-.05.06-.07.13-.15l.03-.04s0,0,.02-.02c.01-.01.02-.04.05-.08.02.01.05,0,.08-.03-.02.03-.09.11-.1.13Z"/>
      <path class="cls-5" d="M7.95,6.63c.03-.09.11-.21.18-.3.02-.03.03-.03.03-.03-.03.06-.08.17-.12.23-.04.06-.07.08-.09.1Z"/>
      <path class="cls-5" d="M8.37,6.05s-.04.02-.06.02c.03-.05.06-.07.07-.08h.03s-.03.04-.04.06Z"/>
      <path class="cls-5" d="M8.2,6.24h0s.04-.04.04-.04c0,0,0,0,0,.02-.01.02-.03.02-.03.02Z"/>
      <path class="cls-5" d="M7.89,6.75v-.04s.04,0,.04,0c0,.02-.04.04-.04.04Z"/>
      <path class="cls-16" d="M3.86,7.43s-.04.05-.07.03c.01-.01.03-.03.05-.04h.03Z"/>
      <path class="cls-16" d="M4.33,8.07l.02-.02s-.03,0,.04-.05c.12-.11.36-.36.42-.48.01-.02-.02-.02,0-.04.05-.06.13-.09.2-.17.08-.09.12-.19.17-.26.04-.05.3-.34.34-.39.04-.04.09-.06.11-.07.01-.01.04-.05.06-.07,0,0,0-.02.01-.04.04-.05.08-.11.12-.16l.03-.04c.03-.06.07-.13.1-.18-.06,0-.13.07-.17.05.06-.07.08-.14.16-.21.02,0,.05.05.05.07l.2-.18c.04-.07.08-.11.1-.18,0-.01-.02-.02-.01-.02.14-.18.26-.31.34-.5,0-.01,0-.09-.04-.08,0,0-.08.08-.08.09,0,0,.02,0,.03,0,.02,0-.03.06-.03.06-.04.02-.02-.1-.1-.02-.04.04.04.02-.03.11-.08.1-.19.11-.26.22-.04.07,0,.06,0,.1-.03.13-.19.25-.27.35-.06.08-.14.2-.2.28-.04.04-.11.09-.14.14-.02.03-.04.11-.08.17-.21.32-.42.56-.71.84-.1.09-.22.27-.35.31-.17.04-.09-.04-.11-.06,0,0-.12,0-.09-.05,0,0,.1-.11.11-.11.02,0,.12-.03.12-.02.01-.01.04-.04.05-.05,0,0,.03.02.05-.01h0s-.04.01-.04.01c-.01,0-.04-.02-.06-.02-.01,0-.12.03-.14.03h-.09s-.02,0-.03,0c-.03,0-.09.03-.1.02,0,0,0-.1,0-.12,0-.02.02-.04.02-.04,0,0-.04,0,0-.06-.05-.03-.14.12-.18.17h.06s-.04.05-.04.05l.05.02c-.13.06-.19.21-.26.27-.04.03-.08,0-.11.03.05.06-.14.23-.14.26,0,.04.11-.04.16-.03.03.01-.05.08-.03.1.05-.03.09-.05.13-.09.06-.05.11-.09.18-.15-.05-.04.08-.15.09-.2,0-.02-.02-.03-.01-.04.02-.04.08-.07.12-.05.1.04-.07.21-.17.29.07.03-.09.09,0,.11-.03.02-.05,0-.09.02.07.02-.17.25-.2.25-.01,0-.03-.02-.04-.02,0,0-.18.08-.18.08.05.03.05,0,.1,0,0,.07-.1.12-.16.07-.06.05-.14.12-.2.16-.03.02-.06.09-.07.1h-.08s-.03-.02-.04-.03c0,0-.14.09-.16.1-.02.01-.02.04-.04.05-.02,0-.06,0-.07,0-.01,0-.08.1-.17.1-.09-.05.1-.09.06-.13h.02s.11-.08.18-.12c.11-.06.28-.11.38-.2.01,0,.12-.16.12-.17,0,0,0-.02,0-.02,0,0-.04-.02-.03-.04-.1.05-.06.02-.1.03-.02,0-.29.16-.3.16-.02.02-.03.04-.05.06,0,0-.09,0-.1,0-.04.01-.07.04-.1.04-.07,0-.07-.07-.04-.11.05-.08.07-.04.09-.04.03-.02.02-.04.04-.05.16-.11.48-.29.66-.42-.05-.02-.29.09-.14-.03.13-.1.31-.2.44-.33.02-.02.02-.05.02-.05,0,0,.06,0,.1-.04.04-.03.09-.08.11-.12,0,0,.05-.15.05-.16,0-.02-.03-.03-.02-.05,0-.03.07-.08-.03-.09-.05,0-.14.09-.13-.04h-.04c.02.07-.05.14-.14.2-.05.03-.15.05-.11.09l-.08.03c-.09.1-.19.19-.3.28-.1-.01-.08.04-.12.08-.06.06-.1.05-.15.07-.03.01-.04.04-.07.05-.03.02-.15.04-.17.06,0,0,.01.02,0,.03-.02.01-.12.06-.17.08-.05.03-.05-.01-.07-.02-.03.02-.05.04-.1.06.08.04-.03.05-.08.07-.08.04-.19.11-.27.15.02.04.05,0,.09,0,.09-.03.21-.08.29-.12.03-.02.06-.05.11-.08.02-.01.17-.06.17-.06.06,0-.1.16-.13.17-.03.01-.06,0-.08.02-.17.08-.35.21-.53.27-.03.01-.07,0-.1,0-.03,0-.03.04-.06.05-.02,0-.05,0-.06,0-.04.01-.06.04-.12.03-.05-.01-.07-.04-.06-.07-.09.04-.12.05-.22.09-.04.02-.19.05-.05.06.08,0,.15-.01.18-.01.03,0,.03.02.05.03.04.01.12-.04.13,0-.18.09-.37.17-.57.24-.01.01.12.05.15.06.11,0,.13-.03.2-.04h.02s-.02-.04-.03-.04c0,0-.06.02-.06,0,0,0,.05-.06.07-.06.04-.01.2-.07.26-.09.06-.02.24-.03.19-.09-.04,0-.11.01-.1-.02,0,0,.13-.08.16-.08.06,0,.04.07.07.09l.04-.02s.01-.03.06-.04c.01,0,.03.01.04,0,.04,0,.1-.01.11-.01.07-.01.05-.05.12.02-.09.05-.22.08-.32.12-.03,0-.05.03-.07.04-.02,0-.05-.02-.08-.01-.02,0-.04.03-.06.03.06.03.1.02.17,0,.09-.02,0,.05-.04.06-.02.01-.06.01-.07.02-.04.02,0,.08.05.09-.1,0-.02.03-.1.05,0,0-.05-.03-.13.03l-.04-.04-.07.02s-.08.03-.13.04c.07.06.16.1.22.16.03,0,.06-.02.09-.03-.09-.12.37-.14.5-.23l.09.03c-.11,0-.07.04-.07.04-.02,0-.07.01-.11.03.05.03.21-.03.22-.03.02,0,.02.05.1.02.04.08-.16.05-.2.06-.06.02-.1.07-.16.09-.19.07-.24.08-.4.16-.12.05-.38.13-.46.18-.01,0-.03.05-.03.06,0,.03.05,0,.06,0,.06-.07.35-.14.5-.16.02,0,.04.01.07,0,.19-.02.51-.13.6-.03h.02c.06-.03.11-.05.17-.07-.14-.06,0-.11.03-.15,0-.02-.03-.04-.01-.05.04-.02.1-.02.15-.04.03,0,.06-.04.07-.04.04,0,.06.03.12-.04,0,0,0-.02,0-.03.07-.06.26-.13.36-.17.02,0-.02-.02,0-.03.03-.02.08-.04.11-.06.12-.08.27-.17.36-.24.05-.04-.02-.04.12-.09.03-.01.04.02.08-.03l-.02-.02c.06.02.07-.06.16-.09.09.01.04.09-.03.16.05.03.12-.05.16-.02.01,0,.03-.02.03-.03,0,0-.02-.02.01-.04.03-.02.07-.03.09-.05l.02-.02.02-.02ZM5.62,6.52h.01s-.02.01-.01,0ZM4.15,8.1h.01s-.02.01-.01,0ZM4.71,7.47l.03-.03.07.02-.03.03-.07-.02ZM2.08,8.99h.01s-.02,0-.01,0ZM1.42,8.92h.01s-.02,0-.01,0ZM2.14,8.5c.05-.02.2-.06.15,0-.03.04-.15.11-.23.11-.14,0-.01-.07.07-.1ZM2.49,8.06c.12-.04.06-.09.14-.15.07-.05.24-.18.32-.22.01,0,.03,0,.04,0,.13-.07.28-.24.42-.34.03-.02.21-.1.24-.1.07.01-.02.07-.03.09-.02.03-.02.05-.05.08-.08.09-.16.08-.24.14,0,0,.01.02,0,.03-.04.08-.09.03-.11.04-.08.03,0,.05,0,.05,0,.01-.07.04-.09.05-.07.05-.1.08-.13.12-.02.05-.41.24-.46.23-.02,0-.03-.02-.05-.03Z"/>
      <path class="cls-16" d="M3.93,8.82c-.26.18-.52.34-.8.49-.06.03-.15.05-.21.08-.06.03-.09.08-.16.1-.06.03-.13.02-.2.05-.03.01-.35.15-.37.15-.04.02-.01.07-.14.08h-.01s-.02-.03-.01-.04c.02-.05.08-.04.13-.05,0,0,.09-.09.1-.09.05-.02.19-.05.21-.09.03-.05-.09-.06-.12-.08,0,0,.06-.05-.01-.06.03-.02.05-.03.04-.05.01,0,.03-.03.05-.04.07,0,.03,0,.1.02.1.04.01-.08.02-.1.02-.07.13-.07.19-.09.03-.02.06-.06.07-.06.02-.01.06.01.08,0,.03-.02.04-.05.08-.07.04-.03.11-.04.13-.06.02-.01-.01-.03,0-.05.03-.02.16-.12.2-.14,0,0,.08,0,.14-.03.12-.05.24-.15.34-.22.01,0-.02-.02,0-.03.05-.04.15-.1.21-.16.05.03-.06.11,0,.13l-.04.03c-.12-.02-.17.11-.21.14-.17.14-.43.27-.63.39-.05.03-.26.15-.28.18,0,.01-.01.04,0,.04.02,0,.3-.08.32-.09.19-.09.43-.29.64-.42.06-.04.09-.03.1-.03,0,.02.02.05,0,.06-.05.05-.1,0-.15.06.06.02-.04.04-.08.07-.03.03-.06.05-.09.07-.07.05-.24.11-.25.17,0,.02.03.04.03.04-.01.04-.1.01-.11.01-.1,0-.05.08-.03.08.07,0,.17-.08.22-.11.18-.09.44-.24.59-.36.07-.05.1-.11.18-.16v-.03s.07-.05.11-.02c-.13.1-.14.15-.18.19-.06.05-.14.09-.2.13Z"/>
      <path class="cls-6" d="M1.36,8.36s.05-.02.07-.04c.11-.03.3-.07.34-.14l.08-.03s.05,0,.09,0c.09-.03.21-.08.29-.12.03-.02.06-.05.11-.08.02-.01.17-.06.17-.06.06,0-.1.16-.13.17-.03.01-.06,0-.08.02-.17.08-.35.21-.53.27-.03.01-.07,0-.1,0-.03,0-.03.04-.06.05-.02,0-.05,0-.06,0-.04.01-.06.04-.12.03-.05-.01-.07-.04-.06-.07Z"/>
      <path class="cls-13" d="M2.04,9.75s-.02-.02-.01-.03c.02-.05.08-.04.13-.05,0,0,.09-.09.1-.09.05-.02.19-.05.21-.09.03-.05-.09-.06-.12-.08,0,0,.06-.05-.01-.06-.12.08-.49.15-.41.24.11-.04.17-.04.24,0-.14.02-.08.04-.1.05-.06.03-.35.04-.26.13.11-.03.1-.05.19.01l.05-.02ZM2.29,9.45h.01s-.02,0-.01,0Z"/>
      <path class="cls-10" d="M1.77,9.45s-.04,0-.05-.01c.03-.01.06-.02.08-.04.15-.04.28-.1.41-.15.04-.04-.52.11-.56.1-.04,0-.07-.01-.1-.01-.12,0-.21.05-.32.08l-.07.02s-.03,0-.04,0c.06-.07.35-.14.5-.16.02,0,.04.01.07,0,.19-.02.51-.13.6-.03-.05.03-.07.06-.14.1-.11.06-.29.07-.4.12Z"/>
      <path class="cls-16" d="M1.28,10.08l-.03-.09.14.02c.08-.03.08-.13.13-.16.04-.02.15-.04.15-.09l.05.03v-.04s0,.02.09,0c.11-.03.1-.05.19.01-.1.03-.3.02-.17.1.11-.06.15-.01.17-.01-.03.02-.03.04,0,.06,0,0,0,.01-.02.02-.06.01-.11-.02-.16-.02-.18-.03-.11.04-.18.07-.07.03-.27.1-.35.11Z"/>
      <path class="cls-3" d="M2.37,9.29s-.05,0-.09.02c-.14.05-.27.12-.42.16-.04,0-.06-.01-.1-.02.12-.05.29-.06.4-.12.07-.03.08-.07.14-.1h.02s.06,0,.1,0c-.02,0-.04.03-.05.04Z"/>
      <path class="cls-3" d="M1.29,8.88s-.05-.04-.06-.1h.02c.08-.03.15-.03.23-.06-.04.05-.12.05-.05.11-.04.01-.08.03-.13.04Z"/>
      <path class="cls-16" d="M1.43,8.32c.15-.1.18-.07.34-.14-.04.07-.23.11-.34.14Z"/>
      <path class="cls-3" d="M1.92,8.93v.05s-.05.02-.09.04c-.05.03-.17.07-.22.05h.04s-.02-.04-.02-.04c.09-.02.2-.07.29-.1Z"/>
      <path class="cls-3" d="M1.72,9.44s-.21.05-.22.05c-.04,0-.08-.03-.11-.03,0,0-.11.02-.15.02-.04,0-.05-.03-.07-.04l.07-.02s.11,0,.15,0c.03,0,.05.04.1.04.08,0,.19-.05.27-.07.02,0,.05,0,.05,0-.02.02-.05.03-.08.04Z"/>
      <path class="cls-7" d="M6.31,6.71c.06,0,0,.03-.02.07-.09.16-.39.55-.53.7-.09.1-.23.22-.34.32-.04.04-.38.44-.41.33,0-.02.36-.32.09-.21,0,0-.04,0-.02-.02.01-.02.07-.05.09-.08.22-.22.4-.45.58-.68.49-.62.94-1.24,1.38-1.9.05,0,.02.07-.03.07l.03.05c.07-.06.02-.06.03-.07.01-.02.07-.06.09-.08.03.02,0,.06-.03.1-.11.19-.3.4-.44.6-.32.44-.65.88-.98,1.32-.08.11-.11.12-.18.23-.02.04-.09.08-.04.08v.02c-.05-.02-.07.02-.11.06.04.02.05.01.1-.04.29-.29.49-.59.73-.89Z"/>
      <path class="cls-9" d="M8.75,3.79s-.03-.02-.02-.04c.02-.09.17-.33.15-.4,0-.01-.04-.03-.05-.04,0,0-.02.02-.03.02-.02,0-.1-.05-.12-.03-.01,0-.06.11-.12.1-.03.06-.09.16-.1.2,0,.03.05,0,.04.02-.14.07-.16.29-.25.42-.01.03-.02.05-.03.08-.02.07-.04.09-.07.15-.01.03-.01.1-.08.13,0,.02-.02.04-.03.06.04,0,0,.12,0,.15-.02.03-.04.08-.07.07-.02.08-.06.09-.09.15.07,0-.03.08-.04.09,0,0,.02,0,.02.02-.01.03-.08.11-.05.12.03.01.1-.08.12-.11.02-.02.03-.03.05-.06-.09.02,0-.07.03-.12,0-.02-.02-.01-.02-.03.01-.02.05-.05.05-.06,0,0-.03,0-.02-.01,0-.02.02,0,.04-.02.12-.13.18-.27.28-.41.04.06.12.03.21-.05.02-.02.03-.04.05-.06h-.07s.1-.21.11-.22c0,0,.04,0,.05,0,0,0,.08-.1.09-.11ZM8.63,3.84s.04.02,0,.04c-.03.02-.04-.02,0-.04ZM8.68,3.76s-.07.08-.08.06c0-.02.07-.08.08-.06ZM8.65,3.38c.12-.07.07.05,0,.13-.03.02-.07-.08,0-.13ZM8.46,3.84s.04.02,0,.04c-.03.02-.04-.02,0-.04ZM8.29,4.07c.08-.19.19-.11.07-.02-.02.01-.07.03-.07.02ZM8.22,4.25c.06-.01-.03.12-.05.16-.06,0-.02-.11.05-.16ZM8.52,3.59c.05-.01,0,.09-.03.1-.05.03-.03-.08.03-.1Z"/>
      <path class="cls-9" d="M7.15,5.26c-.44.66-.88,1.27-1.38,1.9-.18.23-.37.46-.58.68-.03.03-.08.06-.09.08-.01.02.02.02.02.02,0,0-.03.03-.03.03,0,0-.03,0-.06.03-.02.02-.03.04-.04.05,0,0-.1.04-.09.02,0-.04.29-.32.33-.39.14-.07.1-.15.17-.23.03-.03.07-.05.1-.08.07-.07.16-.24.22-.31.02-.02.08-.06.12-.11.06-.08.07-.16.2-.24l-.04-.02c.08-.03.12-.08.17-.15.16-.26.36-.48.55-.74.04-.06,0-.09.09-.09-.06-.05.1-.18.17-.28.13-.18.32-.47.41-.63.03-.06.08-.15.11-.21.02-.03.12-.04.03-.08l.1-.14h.05c-.08.17-.19.34-.29.5-.02.04-.06.07-.01.07-.07.1-.15.21-.22.31Z"/>
      <path class="cls-5" d="M7.11,5.63s-.1.12-.12.16l-.31.44-.29.41s-.05,0-.04.03l-.03.04c-.23.3-.44.6-.73.89-.05.05-.05.06-.1.04.03-.04.06-.08.09-.06v-.02s.03-.05.05-.08c.06-.11.09-.12.18-.23.33-.43.67-.87.98-1.32.14-.2.33-.41.44-.6h.07s-.07.09-.09.12c-.01.02-.03.08-.03.1l-.08.09Z"/>
      <path class="cls-7" d="M3.89,8.94h-.08c.08-.07.16-.07.11-.12.07-.04.15-.09.2-.13.04-.04.05-.09.18-.19l.05-.05c.31-.24.43-.4.66-.65l.05-.05.02-.02c.19-.23.4-.46.6-.69h.03c-.07.08-.16.24-.22.32-.03.03-.07.05-.1.08-.07.08-.03.16-.17.23-.04.07-.32.35-.33.39,0,.02.09-.02.09-.02.01-.01.02-.03.04-.05.02-.02.06-.03.06-.03-.07.08-.17.18-.26.26-.29.26-.59.5-.93.72Z"/>
      <path class="cls-6" d="M3.55,9.16c-.09.05-.19.11-.28.17-.13.07-.27.15-.41.21-.15.06-.27.12-.4.18-.12-.02-.31.14-.42.09-.03-.01.02-.04.02-.04.12,0,.1-.05.14-.08.02,0,.34-.14.37-.15.07-.03.14-.02.2-.05.06-.02.1-.07.16-.1.06-.03.14-.04.21-.08.28-.14.55-.31.8-.49.05.05-.03.05-.11.11h.08c-.11.08-.23.16-.35.23Z"/>
      <path class="cls-13" d="M7.99,4.22s-.02.19-.06.16v.02s-.01.03-.03.08c-.01.04.01.06.01.07,0,.01-.08.12-.09.13-.01.02-.04,0-.04.02-.06.24-.32.56-.49.81-.03.04-.04.1-.07.14-.02.02-.05.04-.07.07,0,0,.02.01.02.02-.01.02-.11.12-.13.15-.07.07-.04-.03-.02-.06.06-.08.17-.11.1-.18l.08-.09c.04-.05.09-.06.03-.1.02-.03.07-.1.09-.13.01-.02.05-.05.08-.09.05-.08.12-.18.17-.26.03-.01.05-.05.06-.07.14-.22.26-.44.38-.67Z"/>
      <path class="cls-13" d="M2.86,9.53c.08.01.13-.04.2-.06.04-.01.17-.07.18-.04-.06.03-.13.05-.19.08-.08.04-.11.13-.21.09h-.02c.07.04-.08.06-.14.09-.04.02-.03.05-.09.07-.02,0-.29.08-.33.08-.15.03-.08-.01-.26.07-.04-.02-.04-.03,0-.06.13,0,.36-.1.47-.14.13-.06.25-.11.4-.18Z"/>
      <path class="cls-12" d="M3.55,9.16s.03.03.1-.01c.09-.05.18-.13.28-.12-.13.08-.29.18-.41.27-.09.06-.06.08-.07.09-.04.01-.17.03-.2.03-.07,0,.14-.07.02-.08.09-.05.19-.11.28-.17Z"/>
      <path class="cls-7" d="M8.12,4.26h-.03c.02-.05.04-.1.1-.15-.02.07-.04.09-.07.15Z"/>
      <path class="cls-5" d="M8.05,4.4s.02-.09.02-.1c0-.01.02-.03.02-.04h.03s-.01.1-.08.14Z"/>
      <path class="cls-16" d="M1.87,9.98s.2-.02.12.02c-.05.02-.12,0-.12-.02Z"/>
      <path class="cls-7" d="M4.44,9.03c.08.01.02.07-.04.03l.04-.03Z"/>
      <path class="cls-7" d="M6.34,6.68s.01-.05.04-.03c-.02.03-.04.03-.04.03Z"/>
      <path class="cls-16" d="M1.38,10.1s-.03,0-.01-.01h.01Z"/>
      <path class="cls-5" d="M8.45,5.89l-.03.02s-.02-.01,0-.04c.03-.07.09-.16.1-.22,0-.03,0-.1-.03-.08-.01,0-.08.05-.08.06-.05.05.07,0,0,.07l-.05-.02-.1.18h-.05s-.11.21-.13.24c-.02.03-.07.07-.09.11,0,.01.02.01.02.03-.11.17-.37.48-.52.64-.03.03-.07.05-.09.07-.02.03,0,.05-.02.08-.02.03-.07.05-.1.09-.04.05-.07.17-.13.22,0,0-.06,0-.06.04,0,.01.07-.02.02.06l-.49.67c-.07.08-.02.13-.11.21l-.18.13c.03-.07.12-.21.17-.28.05-.08.15-.15.18-.22.02-.03,0-.03,0-.04.02-.03.07-.06.09-.08,0-.01-.02-.02-.01-.03.01-.04.07-.12.11-.17.15-.21.31-.42.46-.64.03-.04.05-.09.07-.11.03-.02.06-.02.08-.04.11-.13.2-.28.3-.42.04-.06.11-.09.15-.15.04-.06-.03-.02-.03-.03,0,0,.07-.1.09-.12.01-.02.05-.03.06-.06.02-.03.03-.09.05-.12,0-.01.04,0,.05-.02.03-.04.12-.22.15-.24.02-.02.08-.04.1-.07.02-.02,0-.05.02-.08.02-.04.09-.11.12-.16.08-.12.15-.41.21-.56.03-.08.02-.21.15-.29-.08.24-.11.39-.13.63,0,.05-.06.07,0,.1.02.01.03.02.07,0-.13.22-.25.42-.37.64Z"/>
      <path class="cls-6" d="M9.2,3.68s-.05.08-.06.08h-.04c.02-.15.09-.29.15-.45.05-.14.09-.22.15-.37.04-.09.05-.24.18-.26-.06.13-.03.14-.05.22-.05.17-.19.39-.26.56-.02.05-.06.14-.04.18l-.04.04Z"/>
      <path class="cls-6" d="M4.38,7.38s-.12.03-.14.03c.1-.08-.03-.07-.09,0,0,0-.02-.01-.03-.01.04-.03,0-.05,0-.06,0,0,.08-.06.08-.09h-.08c.07-.06.11-.08.17-.14.03-.03.07-.06.02-.06,0-.01.04-.07.04-.07.11-.06.05-.05.04-.07,0-.01,0-.04-.01-.04l.03-.03s.09-.04.13-.08l-.06-.02c.12-.12.29-.25.4-.38.06-.07.08-.16.2-.22.14-.07.11.01.2-.18.01-.02.04-.07.04-.07.04-.01.05-.02.08-.05.13-.17.2-.36.34-.51.03-.04.04-.06.09-.05-.01.04-.04.06,0,.06l.12-.18h.06c-.08.13-.27.32-.34.42-.03.04-.01.07-.06.13-.04.04-.1.07-.15.13-.07.08-.07.17-.2.22,0,.03.08,0,.03.05-.09.1-.11.01-.19.14-.11.15-.05.23-.1.32-.02.05-.16.19-.16.2,0,0,.04,0,.03.02-.04.09-.19.2-.25.29-.08.12,0,.06-.18.21-.03.03-.06.06-.08.08Z"/>
      <path class="cls-13" d="M3.86,7.43h-.03s0-.03.02-.05h.06s-.04.05-.04.05Z"/>
      <path class="cls-13" d="M3.68,8s-.08.06-.13.09c-.03-.02.06-.09.03-.1-.05-.02-.16.07-.16.03,0-.03.19-.2.14-.26.03-.03.06,0,.11-.03.07-.06.13-.2.26-.27l-.05-.02s-.04.05-.07.03c-.07.05-.15.11-.21.17-.08.06-.14.12-.25.16l-.03.02c-.17.13-.5.31-.66.42-.02.01-.01.03-.04.05-.01,0-.04-.04-.09.04-.02.04-.02.11.04.11.03,0,.07-.03.1-.04.01,0,.09,0,.1,0,.03-.01.03-.04.05-.06.01,0,.28-.16.3-.16.04-.01,0,.02.1-.03.03-.02.07-.05.11-.06.1.02.05.08-.07.1,0,0,0,.01,0,.02.12.05.32-.13.4-.14.09-.01-.1.12-.09.13,0,0,.03.02.04.02.02,0,.26-.24.2-.25-.04.01-.09.05-.12.03ZM3.36,8.04s.03.03,0,.04c-.03,0-.02-.03,0-.04ZM2.94,8.21l.04-.02.04.02-.04.02-.04-.02Z"/>
      <path class="cls-16" d="M5.84,5.25c-.15,0-.23.13-.29.26-.02.05-.03.11-.06.16-.04.05-.15.12-.19.18-.01.02.02.06.02.06,0,0-.03.05-.04.07l-.05.05c-.06-.02-.15.06-.2.04.08-.09.11-.2.17-.28.1-.16.3-.4.42-.57.03,0,.03.02.08,0,.11-.07.06-.09.08-.13,0-.01.04,0,.05-.03.03-.06.03-.05.06-.1.02-.03.11-.17.11-.17,0-.01-.06-.05-.1,0,.01-.07.08-.09.13-.15.09-.11.16-.23.25-.36,0,.06-.04.16-.11.22h.08s.04-.13.07-.16c.03-.04.07-.05.11-.13.05,0,0,.06,0,.09-.06.11-.16.28-.23.39-.05.08-.24.23-.28.29,0,.01-.06.13-.06.13,0,.06.02.05-.02.16Z"/>
      <path class="cls-12" d="M5.6,5.01s-.12.09-.12.1h.07s-.02.05-.02.05c0,0-.02-.02-.05.02-.09.11-.11.2-.19.3-.11.14-.11.16-.2.28-.02.03-.04,0-.07.04-.03.04-.16.22-.18.23-.01,0-.08-.03-.1-.02.02-.02.03-.05.05-.07.02-.02.05-.02.08-.07.05-.06.03-.09.04-.12,0,0,.02-.03.03-.03.02-.02.07-.05.1-.08.09-.1.26-.28.22-.35.06-.05.09-.11.14-.17.14-.17.35-.38.37-.56,0,0,.03-.05.05-.07.04-.03.04.02.12-.07.06-.07.09-.15.15-.23,0,0,.04,0,.04.02,0,.04-.08.13-.05.17-.06.1-.16.27-.24.36-.08.1-.16.1-.26.28Z"/>
      <path class="cls-6" d="M4.09,7.16l-.13.05c-.08-.06.04-.11.09-.18,0,0-.02-.01,0-.03.13-.18.53-.5.68-.73.06-.1.06-.11.16-.21.05-.05.17-.1.13-.03-.01.03-.11.16-.14.2-.05.07-.15.17-.19.22-.05.06-.12.18-.18.23-.02.02-.03,0-.06,0-.01,0-.08.06-.09.07-.06.05,0,.04,0,.05,0,0,0,0-.01.02-.02.03-.1.04-.15.08-.02.02-.14.17-.14.18,0,.02.04.04.06.03.02,0,.07-.07.1-.04-.03.02-.06.05-.1.08Z"/>
      <path class="cls-8" d="M4.32,7.06c-.13.15-.2.08-.29.22,0,0-.04,0,0-.06.01-.01.04-.04.06-.06.04-.03.07-.06.1-.08l.06-.06h.02s0-.03,0-.03c.02-.02.06-.06.07-.08.02,0,.03-.01.04-.03.02,0,0,.03.01.04-.11.07-.04.06-.04.07,0,0-.04.06-.04.07Z"/>
      <path class="cls-5" d="M4.74,6s-.02.04-.05.03c0,0-.04-.07-.03-.07,0,0,.05-.09.06-.1l.03-.03s.07-.08.08-.08c.03-.03.1-.04.13-.03,0,0-.03.03-.03.03-.08,0-.22.18-.13.19-.02.01-.03.05-.05.07Z"/>
      <path class="cls-5" d="M3.7,6.92h-.04s-.02,0-.03-.01c0,0,.03-.03.03-.03.05,0,.07-.01.03-.03l.04-.04h.01s.08-.04.09-.02c.02.05-.07.11-.13.12Z"/>
      <path class="cls-16" d="M3.33,7.8c.06-.04.09-.08.17-.13.03-.02.05-.06.08-.03-.08.06-.14.12-.25.16Z"/>
      <path class="cls-12" d="M4.43,6.82s-.07.02-.07.02c0,0-.03-.01-.04-.01,0,0,.01-.02.01-.02.07-.07.09-.07.15-.05l-.06.06Z"/>
      <path class="cls-16" d="M4.72,5.85h-.04s.07-.08.08-.09v.06s-.04.03-.04.03Z"/>
      <path class="cls-7" d="M6.62,5.69c-.09.02-.14.12-.18.18-.02.03-.07.07-.01.07l-.03.04c-.16,0-.22.24-.27.34-.02.03-.05.05-.06.07v.02c-.05-.02-.1.04-.04.04l-.03.04s-.07.03-.11.07c-.07.09-.18.29-.24.36-.01.01-.04,0-.05.02-.07.07-.01.08-.02.1-.01.01-.05.04-.07.06-.16.19-.33.43-.51.6-.03.03-.05,0-.08.04-.04.04-.11.13-.14.16-.13.13-.28.23-.43.37,0-.03-.15.07-.15.08h.03s-.03.03-.04.04c-.04-.03-.05.02-.09.04-.04.03-.31.2-.33.2-.09.02.06-.08.07-.09.04-.04.03-.05.09-.11l.04-.03c.05-.05.12-.1.18-.17.01,0,.03-.02.03-.03.03,0,.1-.07.1-.09l.02-.02h.02s0-.02,0-.02l.02-.02h.02s.05-.04.01-.05c.12-.11.36-.36.42-.48.01-.02-.02-.02,0-.04.05-.06.13-.09.2-.17.08-.09.12-.19.17-.26.04-.05.3-.34.34-.39.04-.04.09-.06.11-.07,0,.07-.09.13-.14.2-.1.13-.18.28-.29.41-.05.06-.22.22-.24.26-.02.03,0,.04-.01.06-.06.09-.2.18-.3.33,0,.01-.04.03-.05.04-.04.05.05.06.1,0,0,0-.06-.06.09-.05,0-.06.08-.13.16-.19.02-.01.03,0,.06-.03.35-.33.58-.84.91-1.16.14-.14.24-.19.25-.36.06-.07.31-.42.33-.46,0-.02-.02-.02-.01-.04.02-.04.1-.14.14-.18.02-.02.04-.01.06-.03.04-.04.11-.11.16-.15l.02-.13c.07-.08.11-.19.15-.26.08-.12.22-.27.25-.4.04-.06.02-.03.04-.02.01,0,.01.02.04,0-.08.14-.07.21-.14.33-.03.05.03.02.04.03-.03.05-.07.12-.1.15-.01.01-.04,0-.05.02-.03.05-.09.22-.15.3-.11.14-.21.28-.32.43Z"/>
      <path class="cls-6" d="M5.09,7.74h-.02s0,.02,0,.02l-.05.05c-.08-.01.12-.12.03-.12-.04.07-.1.06-.14.08-.05.03-.09.09-.15.11.03-.03.1-.12.14-.16.03-.03.05,0,.08-.04.18-.17.34-.41.51-.6.02-.02.06-.05.07-.06.01-.02-.05-.02.02-.1.01-.01.04,0,.05-.02.06-.07.18-.27.24-.36.03-.04.06-.08.11-.07-.05.07-.17.18-.06.17.03,0,.13-.14.16-.17.07,0-.04.07-.06.1l-.21.27c-.05.06-.06.06-.09.09,0,.01.02.01.01.03-.01.02-.05.07-.08.09-.19.23-.4.46-.6.69Z"/>
      <path class="cls-2" d="M6.21,6.37s-.07.05-.1.08v.02s-.14.17-.17.17c-.11.01,0-.1.06-.17l.03-.04.03-.04v-.02s.1-.05.12-.08c.08-.1.14-.21.23-.33l.03-.04c.06-.08.14-.18.2-.25.11-.15.22-.29.32-.43.05-.07.11-.25.15-.3,0-.01.03,0,.05-.02.03-.04.07-.11.1-.15l.08-.13h.02s-.03.05,0,.04c.02-.03.05-.06.07-.09.05,0,.01.03-.01.07-.17.25-.33.52-.51.78-.23.31-.46.62-.68.91Z"/>
      <path class="cls-1" d="M7.29,4.43s0-.05-.04.02c0,0-.03-.07-.04-.08,0-.01.02-.04.02-.05,0-.03-.04-.02,0-.09.02-.04.07-.13.1-.18.03-.05.12-.15.14-.18l.19-.35s.11-.09.13-.14c-.05.15-.11.29-.2.45-.09.16-.19.35-.27.5-.01.03.03.04-.03.1Z"/>
      <path class="cls-2" d="M7.26,5.23s-.07.06-.09.08c0,0,.05,0-.03.07l-.03-.05s.07-.07.03-.07c.07-.11.15-.21.22-.31l.2-.32h.05c-.07.12-.12.24-.18.35-.03.05-.09.11-.1.13,0,0,.03,0-.06.12Z"/>
      <path class="cls-1" d="M7.53,4.35s-.05.06-.07.09l-.11.19v-.07s.22-.46.22-.46l.03.1s-.04.11-.07.15Z"/>
      <path class="cls-16" d="M7.38,4.37s-.05,0-.04.04v.02s-.04,0-.06,0c.06-.06.01-.07.03-.1.08-.14.19-.34.27-.5.03.02,0,.05-.02.09-.07.14-.14.27-.19.39,0,.03,0,.05,0,.08Z"/>
      <path class="cls-5" d="M7.55,4.96c-.05.08-.11.18-.17.26-.06,0-.04,0-.01-.05.06-.12.13-.22.19-.33,0,.01.03.06.03.06,0,0-.02.03-.04.06Z"/>
      <path class="cls-9" d="M7.91,3.92l-.04-.07s0-.18.07-.2c.06-.02-.02.13-.02.13,0,.02.09,0-.02.14Z"/>
      <path class="cls-4" d="M7.49,4.51s.01-.06.02-.09l-.06.02-.11.19-.02.04h.02s-.03.05,0,.04c.02-.03.05-.06.07-.09.03-.03.05-.06.08-.1ZM7.46,4.49h.02s-.02.01-.02,0Z"/>
      <path class="cls-1" d="M7.81,3.68c-.02.06.05.03.05.04,0,0-.05.1-.06.12-.01.02-.04.02-.05.03-.06-.02,0-.12.06-.19Z"/>
      <path class="cls-16" d="M7.65,4.3c-.06.01,0-.04,0-.07-.01-.02-.06,0-.01-.08.09-.16.1.06.02.15Z"/>
      <path class="cls-1" d="M7.93,4.16c-.11,0-.06-.11.06-.15.05-.02-.06.13-.06.15Z"/>
      <path class="cls-8" d="M8,3.58s-.05.02-.07.02c.03-.05.08-.14.08-.19h.03c-.02.07.01.1-.04.17Z"/>
      <path class="cls-2" d="M7.51,4.42l-.06.02s.05-.07.07-.09c.03.01,0,.05-.01.08Z"/>
      <path class="cls-6" d="M6.21,6.37s-.05.07-.1.08c.03-.03.06-.11.1-.08Z"/>
      <path class="cls-7" d="M7.35,4.41s0-.05.04-.04c-.02.04-.04.04-.04.04Z"/>
      <path class="cls-5" d="M8.03,5.52c-.26.38-.51.77-.76,1.14-.04.06-.15.21-.17.26-.01.02.06.02-.03.04,0,.1-.07.09-.07.09-.02.03,0,.05-.03.08-.06.08-.2.25-.27.33-.02.03-.1.04-.05.07-.11.05-.08.11-.13.16-.03.03-.19.17-.23.18-.14.02-.06-.03-.03-.09,0-.02,0-.04.01-.05.01-.02.16-.14.2-.19,0,0-.02-.03,0-.07,0-.03.05-.02.06-.03.02-.03,0-.04.02-.06.03-.05.16-.23.17-.24,0-.01-.04-.01,0-.06.02-.02.13-.17.16-.2.11-.13.21-.2.3-.35.02-.03.03-.09.03-.09.01-.02.06-.03.09-.07.29-.39.53-.84.8-1.24.07-.1.15-.19.22-.29.07,0-.08.14-.11.18-.06.09-.15.3-.2.34-.02.02-.05,0-.06.03-.01.03.01.07.01.08,0,.03-.04.07-.04.07,0,.02.1-.04.12-.03Z"/>
      <path class="cls-5" d="M8.56,4.26c-.1-.09-.22.18-.33.28-.02.02-.04,0-.05.01-.07.05-.18.27-.24.34-.09.02,0-.07.03-.12,0-.02-.02-.01-.02-.03.01-.02.05-.05.05-.06,0,0-.03,0-.02-.01,0-.02.02,0,.04-.02.12-.13.18-.27.28-.41.04.06.12.03.21-.05l.09-.02-.05.1Z"/>
      <path class="cls-8" d="M9.43,2.63s-.03.05-.06.06v-.04s.02-.04.02-.04c.04-.02.05-.11.07-.12h.03s-.04.09-.06.14Z"/>
      <path class="cls-5" d="M8.33,4.83s.02-.1.05-.16c.06-.01-.02.11-.05.16Z"/>
      <path class="cls-5" d="M8.06,5.48c-.07,0,.03-.13.07-.12l-.07.12Z"/>
      <polygon class="cls-5" points="9.38 2.7 9.36 2.7 9.38 2.66 9.38 2.7"/>
      <path class="cls-12" d="M3.66,6.92c.02.06-.05.14-.14.2-.05.03-.15.05-.11.09l-.08.03c-.09.1-.19.19-.3.28-.1-.01-.08.04-.12.08-.06.06-.1.05-.15.07-.03.01-.04.04-.07.05-.03.02-.15.04-.17.06,0,0,.01.02,0,.03-.02.01-.12.06-.17.08-.05.03-.05-.01-.07-.02.03-.02.12-.07.14-.09,0,0,.09.03.04-.03h.02s.11-.05.16-.08c.05-.03.08-.01.09-.08l.04.03.02-.04c.09.02.01-.02.01-.02,0,0,.15-.07.18-.09.03-.02.03-.04.04-.05.03-.02.16-.08.21-.14.06-.05.03-.09.08-.07,0-.06.08-.08.06-.14,0,0,.04,0,.05,0,.04-.05.04-.07.12-.15h.05c-.06.07,0,.04.04,0,0,0,.02.01.03.01Z"/>
      <path class="cls-2" d="M4.6,7.29c-.07.11-.04.04-.09.06-.02,0-.03.03-.03.03-.03.01-.04.03-.04.03-.01,0-.04-.02-.06-.02.02-.02.05-.06.08-.08.18-.15.09-.09.18-.21.06-.09.21-.2.25-.29.01-.02-.03-.01-.03-.02,0-.01.13-.15.16-.2.05-.1-.01-.17.1-.32.08-.13.1-.03.19-.14.05-.05-.04-.02-.03-.05.13-.04.13-.14.2-.22.05-.06.12-.09.15-.13.05-.05.03-.09.06-.13.07-.1.26-.28.34-.41h-.06s.04-.08.06-.12c.02-.05.04-.07.03-.11.01,0,.08-.1.09-.06,0,0-.02.04-.02.05,0,.09-.02.13-.1.24.13.02.09-.07.12-.13.02-.04.11-.13.1-.13,0,0-.05,0-.05-.01,0-.01.03-.1.05-.13.02.08.1-.09.1-.1,0-.04-.05.04-.07.05-.05,0-.01-.02.01-.06.05-.07.13-.15.17-.22.03-.06.03-.09.08-.17.07,0-.02.07-.02.07,0,.02.08,0,.1,0,.01,0,.02,0,.03,0,.08-.01.12-.08.09.03,0,.04-.09.2-.12.25-.03.04-.11.16-.14.15v.02c.05.01-.02.02-.03.03-.02.02-.03.07-.05.11-.12.19-.26.37-.4.55-.05.07-.13.13-.17.2,0,.01.02.02,0,.05-.02.04-.06.06-.07.08,0,.01.02.01.02.03-.03.04-.15.15-.19.2-.09.12-.14.24-.25.37-.04.05-.1.09-.14.13-.14.17-.22.32-.39.49-.05.05-.04.03-.11.1-.07.08-.05.07-.1.15Z"/>
      <path class="cls-1" d="M6.83,4.01c-.08-.05.09-.21.14-.28.04-.07.09-.19.12-.27l.03-.05c.05-.09.08-.19.17-.25-.1.26-.26.6-.45.86Z"/>
      <path class="cls-2" d="M5.83,5.29s-.05.02-.09.05c-.14.15-.21.35-.34.51-.03.03-.04.04-.08.05,0,0-.04-.04-.02-.06.04-.06.15-.13.19-.18.04-.05.04-.11.06-.16.06-.13.15-.26.29-.26v.04Z"/>
      <path class="cls-16" d="M7.08,3.46c-.07.12-.11.2-.17.31v-.04c-.01-.06-.02-.02-.03-.02-.05-.07.04-.17.13-.25v.04s.08-.08.07-.09l-.06.03.08-.14v.11s-.02.05-.02.05Z"/>
      <path class="cls-4" d="M6.62,4.35s-.09.02-.1,0c0,0,.09-.07.02-.07l.03-.05c.04-.07.13-.19.17-.25.08-.06.11-.17.16-.25v.04c-.07.14-.12.24-.19.36,0,0-.04.03-.06.08-.02.04,0,.05,0,.05l-.03.09Z"/>
      <path class="cls-1" d="M6.74,3.98c-.04.06-.12.18-.17.25-.08-.05.06-.17.1-.23.06-.09.05-.18.19-.26-.04.09-.07.15-.12.24Z"/>
      <path class="cls-2" d="M6.77,3.74h.03s-.05.04-.07.05c-.07.05-.07.1-.1.16,0-.09,0-.19.14-.21Z"/>
      <path class="cls-1" d="M6.02,5.07c-.06,0-.11-.03-.02-.1.02-.01.04,0,.05-.01,0,.04,0,.06-.03.11Z"/>
      <path class="cls-3" d="M6.74,3.98c.05-.09.08-.15.12-.24l.02-.04s.01-.03.02.02c-.05.08-.09.19-.16.25Z"/>
      <path class="cls-12" d="M6.28,4.74s.06-.09.07-.05c0,.02-.08.19-.1.1,0-.01.02-.04.04-.05Z"/>
      <path class="cls-4" d="M6.09,4.38s.05-.13.05-.17c0-.02-.04-.02-.04-.02-.01-.01-.02-.04-.04-.04l.04-.07c.04-.06.15-.22.17-.25.02-.02.05-.02.06-.03,0,0,0-.03.02-.05.03-.03.1-.04.06-.09l-.05.03.14-.15c-.07,0-.07,0-.06-.06.03-.11.05-.05.08-.1.03-.03.05-.1.08-.14.02-.03.05-.05.06-.07.02-.04.05-.17.07-.19l.07.04c-.06.12-.08.23-.15.35-.07.12-.24.33-.29.42-.02.04,0,.07-.02.09-.01.02-.08.01-.12.06-.04.06-.08.12-.12.18h.04s.04,0,.06,0c-.05.09-.08.15-.14.25Z"/>
      <path class="cls-1" d="M6.47,4.08c-.06,0-.03.02-.08.07-.02.02-.05.03-.05.03h-.01c-.11-.1.02-.17.1-.32.04-.07.14-.32.21-.36.01,0,.03,0,.03,0,.02.01,0,.04-.01.06-.04.08-.1.22-.12.3,0,.02,0,.09,0,.13-.01.03-.03.06-.06.09Z"/>
      <path class="cls-4" d="M5.91,4.78s.1-.01.1,0c0,0-.09.14-.11.17-.03.05-.03.04-.06.1-.02.04-.05.02-.05.03-.03.04.02.06-.08.13-.05.03-.05.02-.08,0v-.02c.07-.08.27-.34.3-.39.01-.02-.02-.02-.02-.02,0,0,.01-.01.01-.02Z"/>
      <path class="cls-14" d="M5.63,5.2c-.05-.01-.04-.07,0-.13.05-.09.18-.3.27-.28,0,0,.03,0,.02.02-.03.05-.23.3-.29.39Z"/>
      <path class="cls-2" d="M5.55,5.12h-.07s.09-.11.12-.11c-.01.02,0,.05-.04.11Z"/>
      <path class="cls-12" d="M6.24,4.13s-.04.01-.06.01l.09-.14c.06,0-.01.09-.03.13Z"/>
      <path class="cls-16" d="M6.33,4.18h.01s-.01.02-.01.02c0,0,0-.02,0-.02Z"/>
      <path class="cls-10" d="M6.98,4.26l-.02.02c-.06.01,0-.07-.05-.06.02-.03.05-.11.01-.1l.02-.04.04-.07s.02-.04.03-.07c0-.02,0-.04,0-.06.01-.02.06-.03.09-.07.02-.03-.04-.02.03-.11.03-.04.14-.1.09-.14.07-.05.05-.03.09,0-.07.1-.14.33-.21.43-.03.04-.18.16-.08.16-.01.02-.06.07-.06.08,0,.02.01.02.01.03Z"/>
      <path class="cls-1" d="M7.32,3.56s-.02-.05-.09,0c0,0-.02.01-.02.02-.02,0-.07,0-.06-.02.02-.04.04-.07.06-.11.03.05.09,0,.15-.03,0,0,.02,0,.03,0,.02-.02.1-.19.15-.22-.02.11-.14.27-.21.37Z"/>
      <path class="cls-13" d="M7.56,3.13h-.03s.07-.16.1-.15c.02,0-.06.12-.07.15Z"/>
      <path class="cls-1" d="M9.03,3.05s-.1.06-.1.07c-.02.02-.04.14-.1.17-.06.01.03-.24.05-.26.01-.02.03,0,.04-.01,0,.1.2-.12.12.04Z"/>
      <path class="cls-1" d="M8.6,4.1h-.06c.04-.06.06-.15.1-.14,0,.06.05.03-.04.14Z"/>
      <path class="cls-17" d="M8.57,4.12h-.07s.1-.21.11-.22c0,0,.04,0,.05,0,0,.01-.02.05-.02.06-.04-.02-.07.08-.1.14h.06s-.03.02-.03.02Z"/>
      <path class="cls-4" d="M9.18,2.89s.04,0,0,.09c-.04.08-.03.04-.07.05,0-.04.04-.09.06-.14Z"/>
      <path class="cls-3" d="M6.54,3.86l.03.12c-.06.06-.04.1-.1.1.03-.03.05-.05.06-.09.01-.04,0-.11,0-.13Z"/>
      <path class="cls-1" d="M6.46,3.47c-.02.07-.01.06.06.06l-.14.15.05-.03s-.03.06-.06.09c-.02.02-.02.04-.02.05,0,0-.04,0-.06.03-.02.03-.13.19-.17.25-.06,0-.04,0-.02-.05.04-.08.1-.17.12-.24h-.04s0-.08.03-.13l.06-.1c.08-.11.1-.04.2-.07Z"/>
      <path class="cls-4" d="M6.2,3.65l-.03.05h-.01c.03-.05.07-.11.09-.16h.01s-.06.11-.06.11Z"/>
      <path class="cls-8" d="M8.53,3.14s0-.11.06-.1c-.02.03-.03.07-.06.1Z"/>
      <path class="cls-10" d="M7.55,4.96s.04-.06.04-.06l.03-.02s-.03.06-.06.07Z"/>
      <path class="cls-14" d="M7.28,2.59l.04-.07s0,.06-.04.07Z"/>
      <path class="cls-16" d="M4.95,5.71s-.09,0-.13.03h-.04c.17-.23.34-.47.51-.71.06,0-.04.07.02.06l.02-.03s.05-.01.06,0c-.03.05-.15.18-.15.21,0,.03.03.01.04.02.04.07-.13.25-.22.35-.03.03-.08.06-.1.08Z"/>
      <path class="cls-16" d="M6.1,4.19c-.07.08-.1.16-.15.23-.07.09-.08.05-.12.07-.03.02-.04.06-.05.07,0,0-.02,0-.03,0-.02.02-.03.04-.04.04-.05.01.04-.09.01-.09,0,0-.04.03-.04.03-.01,0-.03,0-.04,0,.05-.09.03-.08.04-.1.07-.18.14-.16.22-.27.02-.03.02-.05.05-.09.02,0,.04.04.06.03,0,0,.01-.03.02-.03.02-.02.05-.03.06-.07-.02.04-.04.11-.08.16,0,0,.06-.01.07,0,.02,0,.03.03.04.04Z"/>
      <path class="cls-5" d="M5.33,5.06l-.02.03c-.07,0,.04-.07-.02-.06.11-.16.26-.34.35-.5.01,0,.03.01.04,0-.06.09-.12.18-.19.27-.02.03-.02.05-.03.06-.04.05-.09.14-.14.19Z"/>
      <path class="cls-10" d="M6.02,4.06s-.01.03-.02.03c-.02,0-.05-.02-.06-.03.05-.09.1-.17.14-.25v-.02s.02-.02.02-.02v-.02s.05-.05.07-.07l.03-.05s0,.1-.03.15c-.04.08-.14.19-.15.26Z"/>
      <path class="cls-2" d="M4.74,5.82v-.06s.04-.03.04-.03h.04s-.08.09-.08.09Z"/>
      <path class="cls-10" d="M8.8,2.9s-.02.15-.08.14c.02-.04.04-.11.08-.14Z"/>
      <path class="cls-9" d="M7.25,4.44c-.02.12-.17.28-.25.4-.05.07-.08.18-.15.26l-.02.13s-.11.11-.16.15c-.02.02-.04.01-.06.03-.04.04-.12.14-.14.18,0,.02.02.02.01.04-.01.05-.27.39-.33.46-.02.02-.06.06-.08.11-.18.05,0-.12.06-.22.02-.02,0-.05.02-.06.02-.03.09-.05.1-.08.01-.02,0-.03,0-.03,0,0,.02-.02.03-.04.05-.09.04-.07.06-.13.06-.18.24-.28.3-.38,0-.01-.02-.01-.02-.03.01-.03.12-.18.14-.22.06-.08.27-.25.18-.3.04-.05.03-.05.06-.09.03-.05.09-.12.12-.19,0,0-.01-.08.02-.13.02-.03.04-.06.05-.09,0,0,.02,0,.03,0-.03.07,0,.05,0,.09,0,.01-.02.04-.02.05,0,0,.04.08.04.08Z"/>
      <path class="cls-8" d="M7.01,4.63l-.08-.05c-.09.11-.14.21,0,.18-.03.03-.05.08-.1.08-.11.02-.03-.09-.03-.15,0-.03-.03-.05-.02-.08.01-.03.05-.06.06-.08,0-.02,0-.04,0-.07,0-.03.04-.08.04-.1.02-.03.02-.04.04-.03-.01.08,0,.12.08,0h.01s0,.06.05.05c0-.03.05-.06.06-.07-.03.05-.01.12-.02.13-.03.07-.08.14-.12.19Z"/>
      <path class="cls-6" d="M7.01,4.34c-.08.11-.09.07-.08,0-.02,0-.03,0-.04.03,0,0-.03-.05-.05-.04-.01,0-.06.09-.09.07.03-.11-.02-.04-.09-.03l.08-.11h-.08s-.02,0,0-.04c.02-.05.06-.07.06-.08.01,0,.03,0,.04-.01,0,.09.03.05.08-.03l.02-.04s.02,0,.03,0c0,0,0,.01.02.02l-.03.05s-.09.07-.1.11c0,.03.03,0,.04.02,0,0,0,.03,0,.04.04.01.08-.04.1-.09.05,0-.01.07.05.06l.02-.02s-.01.07-.01.07c0,.01.03,0,.04,0Z"/>
      <path class="cls-1" d="M7.19,4.22s-.05.04-.07.05c-.02.01-.06.02-.06.02-.04,0-.05,0-.03-.04.04-.13.06-.08.09-.09.01,0,.11-.11.14-.12.04-.02,0,.03,0,.05-.02.05-.04.09-.07.14Z"/>
      <path class="cls-4" d="M7.14,4.31s-.05.04-.06.07c-.04,0-.04-.03-.05-.04.01-.01.03-.05.03-.05,0,0,.04,0,.06-.02.02-.01.07-.05.07-.05-.02.03-.04.06-.05.09Z"/>
      <path class="cls-12" d="M6.11,3.77l.04-.07h.01s-.03.06-.06.07Z"/>
      <polygon class="cls-12" points="6.1 3.79 6.09 3.8 6.08 3.79 6.1 3.79"/>
      <path class="cls-10" d="M7.36,3.41c-.07.02-.12.08-.15.03v-.02s.06.01.06.01c.08-.15.17-.34.27-.49,0,.05-.04.12-.06.18-.01.03,0,.06,0,.08-.02.04-.12.12-.11.21Z"/>
      <path class="cls-8" d="M7.24,3.55s-.06.1-.09.14c-.08.09,0,.07-.03.11-.03.04-.07.05-.09.07-.02.02,0,.04,0,.06-.03.04-.07.04-.1.03.04-.07.06-.12.09-.17.03-.05.06-.1.09-.15l.05.02s.04-.06.07-.09c0,0,.02-.01.02-.02Z"/>
      <path class="cls-10" d="M6.76,4.1v.02s-.04,0-.05.01c.07-.12.12-.23.2-.36.06-.11.11-.19.17-.31-.03.07-.07.19-.12.27-.05.08-.21.24-.14.28-.03.04-.03.05-.07.09Z"/>
      <path class="cls-2" d="M6.99,4.01s-.06.03-.09.07c-.03,0-.02-.02-.02-.02.02-.03.02-.04,0-.04.01-.02.04-.04.05-.05.03,0,.06.01.1-.03,0,.04,0,.03-.03.07Z"/>
      <path class="cls-17" d="M7.21,3.57s-.05.06-.07.09l-.05-.02s.03-.06.05-.09c0,.03.04.02.06.02Z"/>
      <path class="cls-2" d="M6.83,4.09c-.05.08-.07.12-.08.03v-.02s.08-.01.08-.01Z"/>
      <path class="cls-10" d="M6.88,4.06s-.02,0-.03,0l.02-.04s.03,0,0,.04Z"/>
      <path class="cls-3" d="M3.69,6.85c-.09-.02-.03.03-.03.03,0,0-.02.02-.03.03-.04.04-.1.07-.04,0h-.05s.15-.15.15-.15l.04.06-.04.04Z"/>
      <path class="cls-9" d="M6.84,6.49c-.06.08-.01.06-.02.07-.03.06-.06.04-.07.05,0,0-.08.13-.09.14-.01.02.03.02,0,.07-.02.04-.07.07-.1.11-.19.24-.36.48-.57.7-.08.09-.27.31-.34.37-.02.02-.11.02-.13.07,0,0,.02,0,.01.02-.04.07-.07.06-.12.05.15-.14.22-.29.33-.42.12-.15.43-.48.49-.61.05-.08-.02-.02.1-.17.15-.18.3-.36.45-.55.06,0,.16-.11.07-.09.02-.02.03-.03.06-.05,0,0,.06-.02.09-.06.01-.02,0-.06.01-.09,0-.01.05-.08.07-.11l.03-.04c.06-.03.11-.06.15-.04,0,0,0,.03-.01.04-.08.04-.09.12-.15.19-.06.07-.05.05-.12.15-.03.03-.07.08-.08.09-.01.02.02.03.02.04,0,0-.05.06-.08.09Z"/>
      <path class="cls-6" d="M8.55,5.04s0,.06-.02.09c-.13.25-.37.51-.54.76-.05.08-.13.21-.18.29-.02.03-.08.05-.09.09,0,.02.02.03.02.04,0,.04-.1.13-.14.18-.06.08-.05.08-.14.17-.03.03-.12.18-.11.08,0-.12.19-.32.28-.45.19-.29.38-.59.55-.88,0,.02-.02.05,0,.07.07.07.1-.03.15-.11.08-.1.18-.22.24-.33Z"/>
      <path class="cls-2" d="M8.55,5.04c-.07.11-.16.22-.24.33-.05.07-.08.17-.15.11-.01-.01,0-.05,0-.07.15-.25.32-.5.44-.74.02-.03.07-.09.09-.13.04,0,.04,0,.04.03,0,.07-.06.2-.1.29-.05.04-.13.16-.07.14l-.02.04Z"/>
      <path class="cls-5" d="M7.89,4.95s-.13.22-.16.26c-.03.03-.06.02-.07.04,0,.01-.01.05-.03.08-.13.21-.22.38-.37.58-.04-.02-.09.02-.15.04.02-.04.08-.14.11-.18.03-.04.16-.19.18-.22.03-.05.01-.08.1-.17.04-.04.06,0,.08-.06,0,0-.03-.02.02-.1.06-.12.17-.27.24-.39.07,0-.03.08-.04.09,0,0,.02,0,.02.02-.01.03-.08.11-.05.12.03.01.1-.08.12-.11Z"/>
      <path class="cls-5" d="M6.84,6.49s.08-.09.08-.09c0,0-.03-.01-.02-.04.01-.01.06-.06.08-.09.07-.09.06-.07.12-.15.06-.07.07-.15.15-.19-.1.16-.21.33-.34.5-.02.03-.03.05-.07.06Z"/>
      <path class="cls-5" d="M6.92,6.23c-.05,0,0-.03.01-.07.04-.06.09-.14.16-.2-.02.03-.06.1-.07.11-.01.03,0,.07-.01.09-.02.03-.08.05-.09.06Z"/>
      <path class="cls-5" d="M8.01,4.46s0,.12,0,.15c-.02.03-.04.08-.07.07.03-.1.03-.1.08-.21Z"/>
      <path class="cls-5" d="M6.8,6.38s.02-.05.07-.09c.09-.02,0,.1-.07.09Z"/>
      <path class="cls-6" d="M8.57,5c-.06.02.02-.1.07-.14-.02.05-.02.07-.07.14Z"/>
      <path class="cls-5" d="M6.21,7.95s-.03-.02,0-.04c.03-.02.03.02,0,.04Z"/>
      <path class="cls-9" d="M6.26,8.54s-.02.01-.02,0h.02Z"/>
      <path class="cls-7" d="M5.66,9.42c.03-.08.17-.17.25-.25.05-.06.11-.12.17-.18.05-.05.1-.13.14-.11-.07.08-.09.1-.13.15-.08.1-.31.31-.43.38Z"/>
      <path class="cls-6" d="M8.4,5.99h-.03s.05-.07.05-.08l.03-.02s-.03.06-.05.1Z"/>
      <path class="cls-7" d="M6.25,8.85l.02-.02s-.02.02-.02.02Z"/>
      <path class="cls-12" d="M4.47,9.83s-.03-.03.01-.04c.04-.01.03.03-.01.04Z"/>
      <path class="cls-13" d="M8.54,5.79s.18-.32.24-.37c-.05,0,.04-.11.06-.09.04.04-.07.18-.1.23-.02.04-.07.23-.16.25-.01,0-.05-.02-.05-.02Z"/>
      <path class="cls-7" d="M5.25,9.74s.05-.09.16-.12c-.03.02-.07.09-.16.12Z"/>
      <path class="cls-13" d="M5.85,9.48h0s.04-.04.04-.04c0,0,0,0-.04.04Z"/>
      <path class="cls-7" d="M6.95,4.72c.09.06-.12.22-.18.3-.03.04-.13.19-.14.22,0,.01.02.02.02.03-.06.1-.24.2-.3.38-.06.04-.12.12-.06.13,0,.01-.02.03-.03.04-.13.04-.14.23-.28.21,0,0,0-.01,0-.02l.2-.18c.04-.07.08-.11.1-.18,0-.01-.02-.02-.01-.02.14-.18.26-.31.34-.5,0-.01,0-.09-.04-.08,0,0-.08.08-.08.09,0,0,.02,0,.03,0,.02,0-.03.06-.03.06-.04.02-.02-.1-.1-.02-.04.04.04.02-.03.11-.08.1-.19.11-.26.22-.04.07,0,.06,0,.1-.03.13-.19.25-.27.35-.06.08-.14.2-.2.28-.04.04-.11.09-.14.14-.02.03-.04.11-.08.17-.21.32-.42.56-.71.84-.1.09-.22.27-.35.31-.17.04-.09-.04-.11-.06l.02-.02c.06.06.26-.06.25-.13,0,0-.08-.01-.08-.01,0,0-.02.02-.03.03-.03,0-.01-.05-.01-.05.01-.01.04-.04.05-.05,0,0,.03.02.05-.01h0s.01-.03.03-.04c.05-.02.02.05.09-.06.03.03.09-.05.12-.09.03-.04.03-.05-.01-.06.07-.07.06-.05.11-.1.17-.16.25-.32.39-.49.04-.05.1-.09.14-.13.12-.13.16-.25.25-.37.04-.05.16-.16.19-.2,0-.01-.02-.01-.02-.03.01-.02.05-.04.07-.08.02-.03-.01-.04,0-.05.04-.07.12-.14.17-.2.13-.18.27-.36.4-.55.02-.04.04-.09.05-.11,0,0,.09-.01.02-.03v-.02s.13-.11.16-.15c.03-.05.11-.21.12-.25.03.02.08-.06.09-.07.02,0,.05.04.05.04,0,.02-.03.06-.04.1,0,.02,0,.05,0,.07-.01.02-.05.05-.06.08-.01.03.02.05.02.08,0,.06-.08.17.03.15.05,0,.07-.05.1-.08l.02-.04Z"/>
      <path class="cls-13" d="M3.98,8.26c-.06.06-.16.12-.21.16-.01,0,.02.02,0,.03-.09.07-.22.16-.34.22-.06.03-.13.02-.14.03-.04.02-.17.11-.2.14-.02.02,0,.04,0,.05-.02.02-.09.03-.13.06-.04.02-.05.06-.08.07-.02,0-.06-.01-.08,0-.01,0-.04.04-.07.06-.05.03-.17.02-.19.09,0,.02.09.14-.02.1-.07-.03-.04-.02-.1-.02-.04,0-.07,0-.1-.02.06-.02.11-.04.17-.06-.14-.06,0-.11.03-.15,0-.02-.03-.04-.01-.05.04-.02.1-.02.15-.04.03,0,.06-.04.07-.04.04,0,.06.03.12-.04,0,0,0-.02,0-.03.07-.06.26-.13.36-.17.02,0-.02-.02,0-.03.03-.02.08-.04.11-.06.12-.08.27-.17.36-.24.05-.04-.02-.04.12-.09.03-.01.04.02.08-.03l-.02-.02c.06.02.07-.06.16-.09.09.01.04.09-.03.16h-.02Z"/>
      <path class="cls-9" d="M5.91,6.46c-.33.32-.56.83-.91,1.16-.03.03-.05.02-.06.03-.08.06-.16.12-.16.19-.15,0-.08.04-.09.05-.05.07-.14.06-.1,0,0-.01.04-.03.05-.04.1-.15.24-.25.3-.33.01-.02,0-.04.01-.06.03-.04.19-.2.24-.26.11-.13.19-.27.29-.41.05-.07.15-.13.14-.2.01-.01.04-.05.06-.07.06.02.04,0,.08-.04l.12-.11.04.09Z"/>
      <path class="cls-13" d="M2.54,8.09s-.03-.02-.05-.03c.12-.04.06-.09.14-.15.07-.05.24-.18.32-.22.01,0,.03,0,.04,0,.13-.07.28-.24.42-.34.03-.02.21-.1.24-.1.07.01-.02.07-.03.09-.02.03-.02.05-.05.08-.08.09-.16.08-.24.14,0,0,.01.02,0,.03-.04.08-.09.03-.11.04-.08.03,0,.05,0,.05,0,.01-.07.04-.09.05-.07.05-.1.08-.13.12-.02.05-.41.24-.46.23Z"/>
      <path class="cls-12" d="M3.32,8.37c-.06.05-.14.12-.2.16-.03.02-.06.09-.07.1h-.08s-.03-.02-.04-.03c0,0-.14.09-.16.1-.02.01-.02.04-.04.05-.02,0-.06,0-.07,0-.01,0-.08.1-.17.1-.09-.05.1-.09.06-.13h.02s.11-.08.18-.12c.11-.06.28-.11.38-.2.01,0,.12-.16.12-.17.12.05.32-.13.4-.14.09-.01-.1.12-.09.13,0,0-.18.08-.18.08-.02-.01-.03-.02-.04-.04-.07.04-.16.08-.13.13l.12-.02h-.02Z"/>
      <path class="cls-5" d="M5.91,6.46l-.04-.09-.12.11s-.02.05-.08.04c0,0,0-.02.01-.04.02,0,.02.01.04,0,.03-.03.15-.17.08-.15l.03-.04c.07.01.22-.22.12-.2,0,0,.02-.06.02-.06.14.02.14-.17.28-.21,0,0,.02.02,0,.03-.02.03-.08.05-.1.08,0,.01,0,.04-.02.06-.07.1-.24.27-.06.22.02-.05.06-.09.08-.11-.02.17-.11.22-.25.36Z"/>
      <path class="cls-10" d="M1.84,8.46s.01-.03.06-.04c.01,0,.03.01.04,0,.04,0,.1-.01.11-.01.07-.01.05-.05.12.02-.09.05-.22.08-.32.12-.03,0-.05.03-.07.04-.02,0-.05-.02-.08-.01-.02,0-.04.03-.06.03h-.02s-.17.05-.17.05l-.24.08s-.06.02-.06,0c0,0,.05-.06.07-.06.04-.01.2-.07.26-.09.06-.02.24-.03.19-.09.02,0,.04,0,.07-.01h.01c-.03.07.17.02.08-.02Z"/>
      <path class="cls-12" d="M1.64,8.62c.06.03.1.02.17,0,.09-.02,0,.05-.04.06-.02.01-.06.01-.07.02-.04.02,0,.08.05.09-.1,0-.02.03-.1.05,0,0-.05-.03-.13.03l-.04-.04-.07.02c-.07-.06.01-.06.05-.11.04-.01.2-.08.15-.11h.02Z"/>
      <path class="cls-2" d="M4.12,7.41s-.09.03-.1.02c0,0,0-.1,0-.12,0-.02.02-.04.02-.04.09-.13.16-.07.29-.22.05,0,0,.03-.02.06-.06.06-.09.08-.17.13h.08s-.08.09-.08.1c0,.01.04.03,0,.06Z"/>
      <path class="cls-7" d="M3.89,7.84s-.02,0-.03,0c-.05-.04.08-.15.09-.2,0-.02-.02-.03-.01-.04.02-.04.08-.07.12-.05.1.04-.07.21-.17.29Z"/>
      <path class="cls-3" d="M4.33,7.55s-.1.04-.05.05l-.02.02-.02.02s-.12,0-.09-.05c0,0,.1-.11.11-.11.02,0,.12-.03.12-.02,0,0-.02.04.01.05-.02.01-.06.05-.08.06Z"/>
      <path class="cls-1" d="M1.25,8.78s-.02-.03-.03-.03l.24-.08.17-.04c.05.02-.11.09-.15.11-.08.02-.15.03-.23.05Z"/>
      <path class="cls-12" d="M5.94,6.1c-.06,0-.13.07-.17.05.06-.07.08-.14.16-.21.02,0,.05.05.05.07,0,0,0,.02,0,.02,0,0-.02.05-.02.06v.02Z"/>
      <path class="cls-13" d="M2.07,8.6c-.14,0-.01-.07.07-.1.05-.02.2-.06.15,0-.03.04-.15.11-.23.11Z"/>
      <path class="cls-12" d="M3.8,7.97s-.09.05-.12.03c.06-.05.11-.09.18-.15.01-.01.03,0,.03,0,.07.03-.09.09,0,.11-.03.02-.05,0-.09.02Z"/>
      <path class="cls-3" d="M1.75,8.48s-.05,0-.07.01c-.04,0-.11.01-.1-.02,0,0,.13-.08.16-.08.06,0,.04.07.07.09h-.02s-.03,0-.03,0Z"/>
      <path class="cls-6" d="M3.97,8.39c-.05-.02.06-.1,0-.13h.02s.12-.06.16-.04c-.06.06-.13.12-.18.17Z"/>
      <path class="cls-7" d="M5.95,6.09c.1-.02-.05.21-.12.2.03-.06.07-.13.1-.18v-.02Z"/>
      <path class="cls-12" d="M3.25,8.2s-.04-.02-.03-.04c.03-.02.07-.05.11-.06.1.02.05.08-.07.1Z"/>
      <path class="cls-10" d="M3.32,8.37h.02s.04-.07.05-.08c.05.03.05,0,.1,0,0,.07-.1.12-.16.07Z"/>
      <path class="cls-7" d="M5.81,6.32c.06-.02-.05.12-.08.15-.02.02-.02,0-.04,0,.04-.05.08-.11.12-.16Z"/>
      <path class="cls-2" d="M4.23,7.41h-.09c.06-.07.18-.08.09,0Z"/>
      <path class="cls-1" d="M1.76,8.49h.02s.02-.02.02-.02l.04-.02c.09.04-.11.09-.08.03Z"/>
      <path class="cls-6" d="M4.19,8.2s-.02-.02.01-.04c.03-.02.07-.03.09-.05,0,.02-.07.09-.1.09Z"/>
      <polygon class="cls-7" points="4.78 7.49 4.71 7.47 4.74 7.44 4.81 7.46 4.78 7.49"/>
      <path class="cls-6" d="M4.34,8.06s-.03,0,.04-.05c.04,0,.03.01-.01.05h-.02Z"/>
      <path class="cls-12" d="M1.43,8.93s-.02,0-.01-.01h.01Z"/>
      <path class="cls-7" d="M2,8.89l-.09.03c-.09.03-.19.08-.29.1,0,0-.03,0-.03,0-.09-.12.37-.14.5-.23l.09.03c-.11,0-.07.04-.07.04-.02,0-.07.01-.11.03Z"/>
      <path class="cls-7" d="M5.64,6.52s-.02,0-.01,0h.01Z"/>
      <polygon class="cls-6" points="4.31 8.09 4.33 8.07 4.33 8.09 4.31 8.09"/>
      <path class="cls-13" d="M4.16,8.11s-.02,0-.01,0h.01Z"/>
      <path class="cls-12" d="M2.09,9s-.02,0-.01,0h.01Z"/>
      <path class="cls-13" d="M4.37,8.45l-.03-.04c.15-.01.11-.08.13-.09.04-.05.13-.11.16-.15.05-.07-.08-.01-.12.02-.03.03-.04.06-.07.08-.1.08-.24.15-.31.2-.04.03-.12.14-.19.11-.02.01-.04.03-.06.04,0,.02.02.05,0,.06-.05.05-.1,0-.15.06.06.02-.04.04-.08.07-.03.03-.06.05-.09.07-.07.05-.24.11-.25.17,0,.02.03.04.03.04-.01.04-.1.01-.11.01-.1,0-.05.08-.03.08.07,0,.17-.08.22-.11.18-.09.44-.24.59-.36.07-.05.1-.11.18-.16v-.03s.07-.05.11-.02l.05-.05ZM4.3,8.44h.01s-.02.01-.01,0Z"/>
      <path class="cls-6" d="M3.93,8.58s-.04.03-.06.04c0,0-.03,0-.1.03-.2.13-.44.33-.64.42-.02.01-.3.09-.32.09-.02,0-.02-.03,0-.04.02-.02.22-.14.28-.18.2-.12.46-.25.63-.39.04-.03.09-.16.21-.14-.06.05-.05.06-.09.11-.01.01-.16.11-.07.09.02,0,.29-.17.33-.2.04-.03.05-.07.09-.04-.06.06-.18.16-.26.21Z"/>
      <path class="cls-8" d="M1.99,9.85s-.07-.04-.17.01c-.13-.08.07-.07.17-.1l.05-.02h.01s-.05.04-.02.05c.11.05.3-.11.42-.09-.11.05-.33.14-.47.14Z"/>
      <path class="cls-16" d="M2.31,9.46s-.02,0-.01,0h.01Z"/>
      <path class="cls-1" d="M1.8,9.4s-.03,0-.05,0c-.08.02-.19.07-.27.07-.05,0-.07-.04-.1-.04-.04,0-.13.04-.15,0,.11-.03.2-.08.32-.08.04,0,.06.02.1.01.03,0,.6-.14.56-.1-.14.05-.27.11-.41.15Z"/>
      <path class="cls-17" d="M8.65,3.51s-.07-.08,0-.13c.12-.07.07.05,0,.13Z"/>
      <path class="cls-17" d="M8.17,4.4c-.06,0-.02-.11.05-.16.06-.01-.03.12-.05.16Z"/>
      <path class="cls-17" d="M8.36,4.05s-.07.03-.07.02c.08-.19.19-.11.07-.02Z"/>
      <path class="cls-17" d="M8.5,3.68s-.03-.08.03-.1c.05-.01,0,.09-.03.1Z"/>
      <path class="cls-17" d="M8.61,3.82s.07-.08.08-.06c0,.02-.07.08-.08.06Z"/>
      <path class="cls-17" d="M8.64,3.88s-.04-.02,0-.04c.03-.02.04.02,0,.04Z"/>
      <path class="cls-17" d="M8.47,3.88s-.04-.02,0-.04c.03-.02.04.02,0,.04Z"/>
      <path class="cls-8" d="M7.19,5.54s.02-.08.03-.1c.06.03.01.04-.03.1Z"/>
      <path class="cls-16" d="M4.37,8.45l-.03-.04c.15-.01.11-.08.13-.09.04-.05.13-.11.16-.15.05-.07-.08-.01-.12.02-.03.03-.04.06-.07.08-.1.08-.24.15-.31.2-.04.03-.12.14-.19.11.08-.05.2-.15.26-.21.01,0,.04-.03.04-.03.09-.02.09-.06.12-.09.15-.14.3-.24.43-.37.06-.02.1-.08.15-.11.04-.02.09-.01.14-.08.08,0-.12.1-.03.12-.23.26-.36.41-.66.65Z"/>
      <polygon class="cls-16" points="5.09 7.74 5.08 7.75 5.07 7.74 5.09 7.74"/>
      <path class="cls-17" d="M4.41,6.85s0-.03.01-.04l.06-.06.06.02s-.08.1-.13.08Z"/>
      <path class="cls-2" d="M4.39,6.88s-.02.03-.04.03c0,0-.01-.05.01-.07,0,0,.04-.05.07-.02,0,0,0,.03-.01.04l-.03.03Z"/>
      <path class="cls-2" d="M4.36,6.99s-.07,0,.04-.07c0,.01.07,0-.04.07Z"/>
      <polygon class="cls-16" points="2.97 8.23 2.94 8.21 2.97 8.19 3.01 8.21 2.97 8.23"/>
      <path class="cls-16" d="M3.36,8.08s-.02-.03,0-.04c.03,0,.03.03,0,.04Z"/>
      <path class="cls-1" d="M5.41,5.12s0-.06-.02-.06c.06-.07.18-.19.16-.24l-.08.06s.01-.04.03-.06c.06-.09.12-.18.19-.27,0,0,.04-.03.04-.03.03,0-.06.11-.01.09.02,0,.02-.03.04-.04.01,0,.03,0,.03,0-.03.18-.23.38-.37.56Z"/>
      <path class="cls-1" d="M4.79,5.93c-.1,0,.05-.19.13-.19-.01.03,0,.06-.04.12-.03.04-.06.05-.08.07Z"/>
      <path class="cls-17" d="M5.27,5.29s-.04,0-.04-.02c0-.03.12-.17.15-.21.01,0-.02.07.02.06-.04.06-.08.12-.14.17Z"/>
      <path class="cls-7" d="M4.27,6.98l-.03.03-.06.06s-.08.04-.1.04c-.02,0-.07-.01-.06-.03,0-.01.12-.16.14-.18.05-.05.12-.05.15-.08.01,0,.03.02.04.01-.02.02-.01.07-.01.07,0,.02-.05.05-.07.08Z"/>
      <polygon class="cls-2" points="4.25 7.01 4.27 6.98 4.27 7.01 4.25 7.01"/>
      <path class="cls-12" d="M3.67,6.88s-.07-.04.03-.03c.04.01.02.02-.03.03Z"/>
      <path class="cls-6" d="M6.4,5.98c-.09.12-.15.23-.23.33-.02.03-.08.09-.11.08.01-.02.04-.04.06-.07.06-.1.11-.34.27-.34Z"/>
      <path class="cls-6" d="M6.43,5.94c-.05,0,0-.03.01-.07.05-.07.1-.16.18-.18-.06.08-.14.17-.2.25Z"/>
      <path class="cls-6" d="M4.23,8.34h-.03s.14-.12.15-.09c-.03.03-.03.06-.12.09Z"/>
      <path class="cls-6" d="M6.02,6.44c-.05,0,0-.05.03-.04l-.03.04Z"/>
      <path class="cls-2" d="M7.47,4.49s-.02.01-.02,0h.02Z"/>
      <path class="cls-6" d="M4.7,7.14s.04.01.01.06c-.03.04-.09.12-.12.09.05-.08.03-.07.1-.15Z"/>
      <path class="cls-10" d="M6.65,4.36s-.02,0-.03,0l.03-.09h.08s-.08.1-.08.1Z"/>
      <path class="cls-10" d="M6.07,4.14s-.07.02-.07,0c.05-.05.06-.12.08-.16.04-.08.08-.13.13-.21-.02.07-.08.16-.12.24-.03.05-.04.04.02.05l-.04.07Z"/>
      <path class="cls-12" d="M6.81,4.3s0-.04,0-.04c.01-.04.04-.08.06-.13l.03-.05h.04s-.02.04-.02.04c-.04.06-.05.12-.11.18Z"/>
      <path class="cls-2" d="M6.91,4.21s-.06.1-.1.09c.06-.06.07-.12.11-.18.04-.01,0,.06-.01.1Z"/>
      <path class="cls-8" d="M6.95,4.08h-.04s.04-.08.09-.07l-.04.07Z"/>
      <path class="cls-4" d="M6.08,3.99s-.04.05-.06.07c.01-.08.11-.18.15-.26h.04c-.05.06-.09.12-.13.2Z"/>
      <path class="cls-4" d="M5.39,5.05s-.05.01-.06,0c.05-.05.1-.13.14-.19l.08-.06c.03.06-.1.17-.16.24Z"/>
      <path class="cls-12" d="M6.95,4.72l-.02.04c-.14.03-.09-.07,0-.18l.08.05s-.02.04-.06.09Z"/>
      <path class="cls-5" d="M6.28,5.78c-.06,0,0-.09.06-.13-.02.06,0,.04-.06.13Z"/>
      <path class="cls-10" d="M6.81,4.26s-.05.01-.04-.02c.01-.04.06-.13.1-.11-.03.04-.05.08-.06.13Z"/>
      <path class="cls-17" d="M4.4,7.49s.02-.03.03-.03c0,0,.08.01.08.01.01.07-.19.2-.25.13l.02-.02.05-.05s.06-.04.08-.06Z"/>
      <path class="cls-3" d="M3.33,8.35l-.12.02s.06-.09.13-.13c0,.02.01.03.04.04,0,0-.02.04-.05.06Z"/>
      <polygon class="cls-16" points="1.75 8.48 1.78 8.48 1.76 8.49 1.75 8.48"/>
      <path class="cls-16" d="M4.28,7.6c-.06,0,.02-.07.05-.05l-.05.05Z"/>
      <path class="cls-16" d="M4.31,8.45s-.02,0-.01,0h.01Z"/>
    </g>
  </g>
</svg>